<svg width="10" height="10" viewBox="0 0 10 10" fill="none" xmlns="http://www.w3.org/2000/svg">
<path d="M9.4091 0.201976L0.0971038 3.35098C0.0792111 3.35694 0.0626856 3.36641 0.0484919 3.37883C0.0342982 3.39125 0.0227208 3.40637 0.0144356 3.42331C0.00615033 3.44025 0.00132324 3.45868 0.000236107 3.47751C-0.000851026 3.49634 0.00182358 3.51519 0.00810379 3.53298C0.015333 3.55462 0.0277815 3.57416 0.04435 3.58986C0.0609184 3.60555 0.081097 3.61693 0.103104 3.62298L4.7611 5.04298L6.1781 9.70798C6.18415 9.72998 6.19553 9.75016 6.21122 9.76673C6.22692 9.7833 6.24646 9.79575 6.2681 9.80298C6.28621 9.80898 6.30535 9.81127 6.32437 9.80972C6.34338 9.80816 6.36189 9.80279 6.37878 9.79393C6.39568 9.78506 6.41061 9.77288 6.42269 9.75811C6.43478 9.74334 6.44376 9.72629 6.4491 9.70798L9.5971 0.392976C9.60881 0.36625 9.61219 0.336614 9.60678 0.30794C9.60138 0.279267 9.58745 0.25289 9.56682 0.232258C9.54619 0.211626 9.51981 0.197699 9.49114 0.192296C9.46247 0.186894 9.43283 0.190267 9.4061 0.201976H9.4091Z" fill="#3653FE"/>
</svg>
