<svg width="14" height="17" viewBox="0 0 14 17" fill="none" xmlns="http://www.w3.org/2000/svg">
<path d="M13 7.13636C13 11.9091 7 16 7 16C7 16 1 11.9091 1 7.13636C1 5.5089 1.63214 3.94809 2.75736 2.7973C3.88258 1.64651 5.4087 1 7 1C8.5913 1 10.1174 1.64651 11.2426 2.7973C12.3679 3.94809 13 5.5089 13 7.13636Z" stroke="#3653FE" stroke-width="1.8" stroke-linecap="round" stroke-linejoin="round"/>
<path d="M7 9.18182C8.10457 9.18182 9 8.26604 9 7.13636C9 6.00669 8.10457 5.09091 7 5.09091C5.89543 5.09091 5 6.00669 5 7.13636C5 8.26604 5.89543 9.18182 7 9.18182Z" stroke="#3653FE" stroke-width="1.8" stroke-linecap="round" stroke-linejoin="round"/>
</svg>
