<svg width="28" height="28" viewBox="0 0 28 28" fill="none" xmlns="http://www.w3.org/2000/svg">
<path d="M13.5 25C19.8513 25 25 19.8513 25 13.5C25 7.14873 19.8513 2 13.5 2C7.14873 2 2 7.14873 2 13.5C2 19.8513 7.14873 25 13.5 25Z" fill="white"/>
<path d="M13.7152 1.45871e-07C11.0024 1.45871e-07 8.35054 0.80443 6.09495 2.31156C3.83937 3.8187 2.08135 5.96084 1.04322 8.46711C0.00508881 10.9734 -0.266533 13.7312 0.262701 16.3919C0.791935 19.0525 2.09826 21.4965 4.01648 23.4147C5.93469 25.3329 8.37865 26.6392 11.0393 27.1685C13.6999 27.6977 16.4578 27.4261 18.964 26.3879C21.4703 25.3498 23.6125 23.5918 25.1196 21.3362C26.6267 19.0806 27.4312 16.4288 27.4312 13.716C27.4314 11.9147 27.0768 10.131 26.3876 8.4668C25.6984 6.80258 24.6881 5.29044 23.4144 4.01674C22.1407 2.74304 20.6286 1.73273 18.9643 1.04353C17.3001 0.354333 15.5164 -0.000262566 13.7152 1.45871e-07ZM16.5772 19.064C16.8146 19.3034 16.9478 19.6269 16.9478 19.964C16.9478 20.3011 16.8146 20.6246 16.5772 20.864C16.4592 20.9822 16.3188 21.0757 16.1643 21.1391C16.0098 21.2024 15.8442 21.2344 15.6772 21.233C15.3393 21.2315 15.0157 21.0963 14.7772 20.857L8.57715 14.639C8.35713 14.3975 8.23853 14.0806 8.24598 13.754C8.25343 13.4274 8.38635 13.1162 8.61715 12.885L14.9092 6.574C15.0265 6.45228 15.167 6.35517 15.3224 6.28835C15.4777 6.22152 15.6448 6.18632 15.8139 6.18479C15.983 6.18326 16.1507 6.21544 16.3073 6.27945C16.4638 6.34346 16.606 6.43801 16.7256 6.55759C16.8451 6.67717 16.9397 6.81937 17.0037 6.9759C17.0677 7.13242 17.0999 7.30014 17.0984 7.46924C17.0968 7.63834 17.0616 7.80544 16.9948 7.96078C16.928 8.11613 16.8309 8.2566 16.7092 8.374L11.3092 13.722L16.5772 19.064Z" fill="#3653FE"/>
</svg>
