<svg width="104" height="30" viewBox="0 0 104 30" fill="none" xmlns="http://www.w3.org/2000/svg">
<path d="M89 0H15C6.71573 0 0 6.71573 0 15C0 23.2843 6.71573 30 15 30H89C97.2843 30 104 23.2843 104 15C104 6.71573 97.2843 0 89 0Z" fill="#3653FE"/>
<path d="M13.994 20V10.2H15.478V18.824H19.93V20H13.994ZM24.4184 20.168C23.7558 20.168 23.1584 20.0187 22.6264 19.72C22.1038 19.412 21.6884 18.9873 21.3804 18.446C21.0724 17.8953 20.9184 17.256 20.9184 16.528C20.9184 15.8 21.0724 15.1653 21.3804 14.624C21.6978 14.0733 22.1224 13.6487 22.6544 13.35C23.1864 13.042 23.7791 12.888 24.4324 12.888C25.0951 12.888 25.6878 13.042 26.2104 13.35C26.7424 13.6487 27.1624 14.0733 27.4704 14.624C27.7878 15.1653 27.9464 15.8 27.9464 16.528C27.9464 17.256 27.7878 17.8953 27.4704 18.446C27.1624 18.9873 26.7424 19.412 26.2104 19.72C25.6784 20.0187 25.0811 20.168 24.4184 20.168ZM24.4184 18.894C24.7731 18.894 25.0998 18.8053 25.3984 18.628C25.7064 18.4507 25.9538 18.1893 26.1404 17.844C26.3271 17.4893 26.4204 17.0507 26.4204 16.528C26.4204 16.0053 26.3271 15.5713 26.1404 15.226C25.9631 14.8713 25.7204 14.6053 25.4124 14.428C25.1138 14.2507 24.7871 14.162 24.4324 14.162C24.0778 14.162 23.7464 14.2507 23.4384 14.428C23.1398 14.6053 22.8971 14.8713 22.7104 15.226C22.5238 15.5713 22.4304 16.0053 22.4304 16.528C22.4304 17.0507 22.5238 17.4893 22.7104 17.844C22.8971 18.1893 23.1398 18.4507 23.4384 18.628C23.7371 18.8053 24.0638 18.894 24.4184 18.894ZM32.8413 20.168C32.1599 20.168 31.5486 20.014 31.0073 19.706C30.4753 19.398 30.0553 18.9733 29.7473 18.432C29.4486 17.8813 29.2993 17.2467 29.2993 16.528C29.2993 15.8093 29.4486 15.1793 29.7473 14.638C30.0553 14.0873 30.4753 13.658 31.0073 13.35C31.5486 13.042 32.1599 12.888 32.8413 12.888C33.6999 12.888 34.4186 13.112 34.9973 13.56C35.5853 14.008 35.9633 14.6147 36.1313 15.38H34.5773C34.4839 14.9973 34.2786 14.6987 33.9613 14.484C33.6439 14.2693 33.2706 14.162 32.8413 14.162C32.4773 14.162 32.1413 14.2553 31.8333 14.442C31.5253 14.6193 31.2779 14.8853 31.0913 15.24C30.9046 15.5853 30.8113 16.0147 30.8113 16.528C30.8113 17.0413 30.9046 17.4753 31.0913 17.83C31.2779 18.1753 31.5253 18.4413 31.8333 18.628C32.1413 18.8147 32.4773 18.908 32.8413 18.908C33.2706 18.908 33.6439 18.8007 33.9613 18.586C34.2786 18.3713 34.4839 18.068 34.5773 17.676H36.1313C35.9726 18.4227 35.5993 19.0247 35.0113 19.482C34.4233 19.9393 33.6999 20.168 32.8413 20.168ZM40.0927 20.168C39.5047 20.168 39.0194 20.07 38.6367 19.874C38.2541 19.678 37.9694 19.4213 37.7827 19.104C37.5961 18.7773 37.5027 18.4227 37.5027 18.04C37.5027 17.368 37.7641 16.836 38.2867 16.444C38.8094 16.052 39.5561 15.856 40.5267 15.856H42.3467V15.73C42.3467 15.1887 42.1974 14.7827 41.8987 14.512C41.6094 14.2413 41.2314 14.106 40.7647 14.106C40.3541 14.106 39.9947 14.2087 39.6867 14.414C39.3881 14.61 39.2061 14.904 39.1407 15.296H37.6567C37.7034 14.792 37.8714 14.3627 38.1607 14.008C38.4594 13.644 38.8327 13.3687 39.2807 13.182C39.7381 12.986 40.2374 12.888 40.7787 12.888C41.7494 12.888 42.5007 13.1447 43.0327 13.658C43.5647 14.162 43.8307 14.8527 43.8307 15.73V20H42.5427L42.4167 18.81C42.2207 19.1927 41.9361 19.5147 41.5627 19.776C41.1894 20.0373 40.6994 20.168 40.0927 20.168ZM40.3867 18.964C40.7881 18.964 41.1241 18.8707 41.3947 18.684C41.6747 18.488 41.8894 18.2313 42.0387 17.914C42.1974 17.5967 42.2954 17.2467 42.3327 16.864H40.6807C40.0927 16.864 39.6727 16.9667 39.4207 17.172C39.1781 17.3773 39.0567 17.634 39.0567 17.942C39.0567 18.2593 39.1734 18.5113 39.4067 18.698C39.6494 18.8753 39.9761 18.964 40.3867 18.964ZM48.3363 20C47.655 20 47.1137 19.8367 46.7123 19.51C46.311 19.174 46.1103 18.5813 46.1103 17.732V14.302H44.9203V13.056H46.1103L46.2923 11.292H47.5943V13.056H49.5543V14.302H47.5943V17.732C47.5943 18.1147 47.6737 18.3807 47.8323 18.53C48.0003 18.67 48.285 18.74 48.6863 18.74H49.4843V20H48.3363ZM51.9245 11.74C51.6445 11.74 51.4112 11.656 51.2245 11.488C51.0472 11.3107 50.9585 11.0913 50.9585 10.83C50.9585 10.5687 51.0472 10.354 51.2245 10.186C51.4112 10.0087 51.6445 9.92 51.9245 9.92C52.2045 9.92 52.4332 10.0087 52.6105 10.186C52.7972 10.354 52.8905 10.5687 52.8905 10.83C52.8905 11.0913 52.7972 11.3107 52.6105 11.488C52.4332 11.656 52.2045 11.74 51.9245 11.74ZM51.1825 20V13.056H52.6665V20H51.1825ZM57.8735 20.168C57.2108 20.168 56.6135 20.0187 56.0815 19.72C55.5588 19.412 55.1435 18.9873 54.8355 18.446C54.5275 17.8953 54.3735 17.256 54.3735 16.528C54.3735 15.8 54.5275 15.1653 54.8355 14.624C55.1528 14.0733 55.5775 13.6487 56.1095 13.35C56.6415 13.042 57.2342 12.888 57.8875 12.888C58.5502 12.888 59.1428 13.042 59.6655 13.35C60.1975 13.6487 60.6175 14.0733 60.9255 14.624C61.2428 15.1653 61.4015 15.8 61.4015 16.528C61.4015 17.256 61.2428 17.8953 60.9255 18.446C60.6175 18.9873 60.1975 19.412 59.6655 19.72C59.1335 20.0187 58.5362 20.168 57.8735 20.168ZM57.8735 18.894C58.2282 18.894 58.5548 18.8053 58.8535 18.628C59.1615 18.4507 59.4088 18.1893 59.5955 17.844C59.7822 17.4893 59.8755 17.0507 59.8755 16.528C59.8755 16.0053 59.7822 15.5713 59.5955 15.226C59.4182 14.8713 59.1755 14.6053 58.8675 14.428C58.5688 14.2507 58.2422 14.162 57.8875 14.162C57.5328 14.162 57.2015 14.2507 56.8935 14.428C56.5948 14.6053 56.3522 14.8713 56.1655 15.226C55.9788 15.5713 55.8855 16.0053 55.8855 16.528C55.8855 17.0507 55.9788 17.4893 56.1655 17.844C56.3522 18.1893 56.5948 18.4507 56.8935 18.628C57.1922 18.8053 57.5188 18.894 57.8735 18.894ZM63.0064 20V13.056H64.3224L64.4344 14.274C64.649 13.8447 64.9617 13.5087 65.3724 13.266C65.7924 13.014 66.273 12.888 66.8144 12.888C67.6544 12.888 68.3124 13.1493 68.7884 13.672C69.2737 14.1947 69.5164 14.974 69.5164 16.01V20H68.0464V16.164C68.0464 14.82 67.4957 14.148 66.3944 14.148C65.8437 14.148 65.3864 14.344 65.0224 14.736C64.6677 15.128 64.4904 15.688 64.4904 16.416V20H63.0064Z" fill="white"/>
<path d="M87 25C92.5228 25 97 20.5228 97 15C97 9.47715 92.5228 5 87 5C81.4772 5 77 9.47715 77 15C77 20.5228 81.4772 25 87 25Z" fill="white"/>
<path d="M87 24.5C92.2467 24.5 96.5 20.2467 96.5 15C96.5 9.75329 92.2467 5.5 87 5.5C81.7533 5.5 77.5 9.75329 77.5 15C77.5 20.2467 81.7533 24.5 87 24.5Z" stroke="#3653FE"/>
<path d="M90.5678 11.35L81.2558 14.499C81.2379 14.505 81.2214 14.5144 81.2072 14.5269C81.193 14.5393 81.1814 14.5544 81.1731 14.5714C81.1648 14.5883 81.16 14.6067 81.1589 14.6255C81.1578 14.6444 81.1605 14.6632 81.1668 14.681C81.174 14.7027 81.1865 14.7222 81.203 14.7379C81.2196 14.7536 81.2398 14.765 81.2618 14.771L85.9198 16.191L87.3368 20.856C87.3428 20.878 87.3542 20.8982 87.3699 20.9148C87.3856 20.9313 87.4051 20.9438 87.4268 20.951C87.4449 20.957 87.464 20.9593 87.4831 20.9578C87.5021 20.9562 87.5206 20.9508 87.5375 20.942C87.5544 20.9331 87.5693 20.9209 87.5814 20.9062C87.5935 20.8914 87.6024 20.8743 87.6078 20.856L90.7558 11.541C90.7675 11.5143 90.7709 11.4847 90.7655 11.456C90.7601 11.4273 90.7461 11.4009 90.7255 11.3803C90.7049 11.3597 90.6785 11.3457 90.6498 11.3403C90.6212 11.3349 90.5915 11.3383 90.5648 11.35H90.5678Z" fill="#3653FE"/>
</svg>
