<svg width="13" height="14" viewBox="0 0 13 14" fill="none" xmlns="http://www.w3.org/2000/svg">
<path opacity="0.6" fill-rule="evenodd" clip-rule="evenodd" d="M6.61099 8.32998C6.93178 8.33053 7.24953 8.26776 7.546 8.14525C7.84248 8.02275 8.11186 7.84292 8.3387 7.61609C8.56553 7.38925 8.74536 7.11987 8.86786 6.8234C8.99037 6.52692 9.05314 6.20917 9.05259 5.88838C9.05546 5.23171 8.80189 4.59985 8.34585 4.12734C7.88982 3.65483 7.26735 3.379 6.61099 3.35858C6.29008 3.35784 5.97219 3.42048 5.67555 3.54291C5.37891 3.66533 5.10936 3.84513 4.88238 4.07198C4.6554 4.29883 4.47545 4.56827 4.35285 4.86484C4.23026 5.16141 4.16744 5.47927 4.16799 5.80018C4.1785 6.45304 4.43667 7.07751 4.89024 7.5472C5.34382 8.01688 5.9589 8.29669 6.61099 8.32998ZM2.51039 1.70098C3.59775 0.61362 5.07253 0.00274658 6.61029 0.00274658C8.14805 0.00274658 9.62283 0.61362 10.7102 1.70098C11.7976 2.78834 12.4084 4.26312 12.4084 5.80088C12.4084 7.33864 11.7976 8.81342 10.7102 9.90078L6.61099 14L2.51039 9.90078C1.46007 8.79414 0.874512 7.3266 0.874512 5.80088C0.874512 4.27516 1.46007 2.80762 2.51039 1.70098Z" fill="#459B0D"/>
</svg>
