<svg width="142" height="18" viewBox="0 0 142 18" fill="none" xmlns="http://www.w3.org/2000/svg">
<path d="M18.198 6.08001H11.987L10.1 0.448009C10.0517 0.316607 9.96424 0.203191 9.84943 0.123075C9.73463 0.0429584 9.598 0 9.458 0C9.318 0 9.18138 0.0429584 9.06657 0.123075C8.95176 0.203191 8.8643 0.316607 8.816 0.448009L6.929 6.08001H0.676001C0.496877 6.08054 0.32524 6.15193 0.198579 6.27859C0.0719187 6.40525 0.000528139 6.57688 5.2381e-07 6.75601C-5.50206e-05 6.79438 0.00430704 6.83263 0.0130005 6.87001C0.0219991 6.96549 0.0520457 7.05778 0.100979 7.14026C0.149913 7.22274 0.216517 7.29335 0.296001 7.34701L5.396 10.947L3.437 16.647C3.39063 16.782 3.3881 16.9281 3.42977 17.0646C3.47143 17.2011 3.55516 17.3209 3.669 17.407C3.7744 17.5018 3.90778 17.5597 4.049 17.572C4.20097 17.5611 4.347 17.5085 4.471 17.42L9.453 13.869L14.435 17.42C14.5581 17.5103 14.7046 17.5631 14.857 17.572C14.9977 17.5624 15.1306 17.504 15.233 17.407C15.3478 17.3218 15.4323 17.202 15.4741 17.0652C15.5158 16.9284 15.5126 16.7818 15.465 16.647L13.506 10.947L18.568 7.31601L18.69 7.21001C18.8162 7.09132 18.8944 6.93051 18.91 6.75801C18.9005 6.57538 18.8215 6.40332 18.689 6.27721C18.5566 6.1511 18.3809 6.08053 18.198 6.08001Z" fill="#FFC62B"/>
<path d="M79.3831 6.08001H73.1721L71.2851 0.448009C71.2368 0.316607 71.1493 0.203191 71.0345 0.123075C70.9197 0.0429584 70.7831 0 70.6431 0C70.5031 0 70.3664 0.0429584 70.2516 0.123075C70.1368 0.203191 70.0494 0.316607 70.0011 0.448009L68.1141 6.08001H61.8611C61.6819 6.08054 61.5103 6.15193 61.3836 6.27859C61.257 6.40525 61.1856 6.57688 61.1851 6.75601C61.185 6.79438 61.1894 6.83263 61.1981 6.87001C61.2071 6.96549 61.2371 7.05778 61.286 7.14026C61.335 7.22274 61.4016 7.29335 61.4811 7.34701L66.5811 10.947L64.6221 16.647C64.5757 16.782 64.5732 16.9281 64.6148 17.0646C64.6565 17.2011 64.7402 17.3209 64.8541 17.407C64.9595 17.5018 65.0928 17.5597 65.2341 17.572C65.386 17.5611 65.5321 17.5085 65.6561 17.42L70.6381 13.869L75.6201 17.42C75.7431 17.5103 75.8897 17.5631 76.0421 17.572C76.1828 17.5624 76.3157 17.504 76.4181 17.407C76.5329 17.3218 76.6174 17.202 76.6591 17.0652C76.7009 16.9284 76.6977 16.7818 76.6501 16.647L74.6911 10.947L79.7531 7.31601L79.8751 7.21001C80.0012 7.09132 80.0795 6.93051 80.0951 6.75801C80.0856 6.57538 80.0065 6.40332 79.8741 6.27721C79.7417 6.1511 79.5659 6.08053 79.3831 6.08001Z" fill="#FFC62B"/>
<path d="M49.5369 6.08001H43.3259L41.4389 0.448009C41.3906 0.316607 41.3031 0.203191 41.1883 0.123075C41.0735 0.0429584 40.9369 0 40.7969 0C40.6569 0 40.5202 0.0429584 40.4054 0.123075C40.2906 0.203191 40.2032 0.316607 40.1549 0.448009L38.2679 6.08001H32.0149C31.8357 6.08054 31.6641 6.15193 31.5374 6.27859C31.4108 6.40525 31.3394 6.57688 31.3389 6.75601C31.3388 6.79438 31.3432 6.83263 31.3519 6.87001C31.3609 6.96549 31.3909 7.05778 31.4398 7.14026C31.4888 7.22274 31.5554 7.29335 31.6349 7.34701L36.7349 10.947L34.7759 16.647C34.7295 16.782 34.727 16.9281 34.7686 17.0646C34.8103 17.2011 34.894 17.3209 35.0079 17.407C35.1133 17.5018 35.2466 17.5597 35.3879 17.572C35.5398 17.5611 35.6859 17.5085 35.8099 17.42L40.7919 13.869L45.7739 17.42C45.8969 17.5103 46.0435 17.5631 46.1959 17.572C46.3366 17.5624 46.4695 17.504 46.5719 17.407C46.6867 17.3218 46.7712 17.202 46.8129 17.0652C46.8547 16.9284 46.8515 16.7818 46.8039 16.647L44.8449 10.947L49.9069 7.31601L50.0289 7.21001C50.155 7.09132 50.2333 6.93051 50.2489 6.75801C50.2394 6.57538 50.1603 6.40332 50.0279 6.27721C49.8955 6.1511 49.7197 6.08053 49.5369 6.08001Z" fill="#FFC62B"/>
<path d="M110.721 6.08001H104.51L102.623 0.448009C102.575 0.316607 102.487 0.203191 102.372 0.123075C102.258 0.0429584 102.121 0 101.981 0C101.841 0 101.704 0.0429584 101.59 0.123075C101.475 0.203191 101.387 0.316607 101.339 0.448009L99.4519 6.08001H93.1989C93.0198 6.08054 92.8482 6.15193 92.7215 6.27859C92.5949 6.40525 92.5235 6.57688 92.5229 6.75601C92.5229 6.79438 92.5273 6.83263 92.5359 6.87001C92.5449 6.96549 92.575 7.05778 92.6239 7.14026C92.6729 7.22274 92.7395 7.29335 92.8189 7.34701L97.9189 10.947L95.9599 16.647C95.9136 16.782 95.9111 16.9281 95.9527 17.0646C95.9944 17.2011 96.0781 17.3209 96.1919 17.407C96.2973 17.5018 96.4307 17.5597 96.5719 17.572C96.7239 17.5611 96.8699 17.5085 96.9939 17.42L101.976 13.869L106.958 17.42C107.081 17.5103 107.228 17.5631 107.38 17.572C107.521 17.5624 107.654 17.504 107.756 17.407C107.871 17.3218 107.955 17.202 107.997 17.0652C108.039 16.9284 108.036 16.7818 107.988 16.647L106.029 10.947L111.091 7.31601L111.213 7.21001C111.339 7.09132 111.417 6.93051 111.433 6.75801C111.423 6.57538 111.344 6.40332 111.212 6.27721C111.08 6.1511 110.904 6.08053 110.721 6.08001Z" fill="#FFC62B"/>
<path d="M140.567 6.08001H134.356L132.469 0.448009C132.421 0.316607 132.333 0.203191 132.219 0.123075C132.104 0.0429584 131.967 0 131.827 0C131.687 0 131.551 0.0429584 131.436 0.123075C131.321 0.203191 131.233 0.316607 131.185 0.448009L129.298 6.08001H123.045C122.866 6.08054 122.694 6.15193 122.568 6.27859C122.441 6.40525 122.37 6.57688 122.369 6.75601C122.369 6.79438 122.373 6.83263 122.382 6.87001C122.391 6.96549 122.421 7.05778 122.47 7.14026C122.519 7.22274 122.586 7.29335 122.665 7.34701L127.765 10.947L125.806 16.647C125.76 16.782 125.757 16.9281 125.799 17.0646C125.841 17.201 125.924 17.3208 126.038 17.407C126.144 17.5018 126.277 17.5597 126.418 17.572C126.57 17.5611 126.716 17.5085 126.84 17.42L131.822 13.869L136.804 17.42C136.927 17.5103 137.074 17.5631 137.226 17.572C137.367 17.5624 137.5 17.504 137.602 17.407C137.717 17.3218 137.801 17.202 137.843 17.0652C137.885 16.9284 137.882 16.7818 137.834 16.647L135.875 10.947L140.937 7.31601L141.059 7.21001C141.185 7.09132 141.264 6.93051 141.279 6.75801C141.27 6.57538 141.191 6.40332 141.058 6.27721C140.926 6.1511 140.75 6.08053 140.567 6.08001ZM138.567 7.56601L135.198 9.98501C134.992 10.1332 134.839 10.3437 134.761 10.5855C134.684 10.8272 134.686 11.0875 134.767 11.328L136.038 15.028C136.05 15.062 136.051 15.0989 136.041 15.1335C136.031 15.168 136.009 15.1984 135.981 15.22C135.952 15.2417 135.917 15.2536 135.881 15.2539C135.845 15.2543 135.809 15.2431 135.78 15.222L132.511 12.895C132.302 12.7509 132.132 12.5586 132.013 12.3343C131.895 12.1101 131.832 11.8606 131.831 11.607V2.75701C131.831 2.73751 131.838 2.71867 131.851 2.70387C131.864 2.68908 131.881 2.6793 131.9 2.67629C131.92 2.67328 131.939 2.67723 131.956 2.68745C131.973 2.69766 131.985 2.71346 131.991 2.73201L133.241 6.45601C133.32 6.69065 133.47 6.89468 133.671 7.0393C133.872 7.18392 134.113 7.26182 134.36 7.26201H138.468C138.503 7.26276 138.537 7.27444 138.565 7.29543C138.594 7.31642 138.615 7.34567 138.625 7.37912C138.636 7.41256 138.636 7.44853 138.626 7.48203C138.615 7.51553 138.594 7.54488 138.566 7.56601H138.567Z" fill="#FFC62B"/>
</svg>
