<svg width="34" height="38" viewBox="0 0 34 38" fill="none" xmlns="http://www.w3.org/2000/svg">
<path d="M18.8528 1.63156C18.6168 1.32442 18.6735 0.884801 18.9784 0.646923C19.2832 0.409044 19.7195 0.466256 19.9556 0.77339C20.7446 1.8062 20.4128 2.92032 20.0303 4.20606C19.6597 5.44665 19.2324 6.89198 20.1319 8.32226C20.3381 8.65048 20.2425 9.08408 19.9167 9.29486C19.591 9.50262 19.1607 9.40627 18.9515 9.07805C17.7112 7.10577 18.2372 5.33222 18.6915 3.80559C18.9664 2.88719 19.2055 2.08925 18.8528 1.63156ZM26.5661 11.9416V16.7504C26.8172 16.7414 27.0802 16.7293 27.3461 16.7173C29.208 16.6239 31.1176 16.5306 32.561 18.009C33.4994 18.9696 33.9477 20.3457 33.864 21.791C33.8222 22.5438 33.6339 23.3206 33.2962 24.0674C32.9615 24.8081 32.4804 25.5188 31.8438 26.1481C30.3257 27.6536 27.9319 28.7075 24.5967 28.5991C24.1574 29.2616 23.6553 29.8789 23.0995 30.4419C20.9597 32.5979 18.0101 33.9348 14.7646 33.9348H12.0361C8.7906 33.9348 5.84096 32.5979 3.70121 30.4419C1.56444 28.283 0.237549 25.308 0.237549 22.0379V11.9416C0.237549 11.5532 0.55134 11.237 0.936855 11.237H25.8668C26.2523 11.237 26.5661 11.5502 26.5661 11.9416ZM26.5661 18.1536V22.0379C26.5661 23.8807 26.1448 25.6302 25.3946 27.1899C27.905 27.1237 29.71 26.2896 30.8696 25.1394C31.3806 24.6335 31.7661 24.0644 32.0321 23.4772C32.2951 22.8961 32.4415 22.2939 32.4744 21.7067C32.5341 20.6468 32.2233 19.6561 31.5689 18.9876C30.5647 17.9578 28.9689 18.0391 27.4149 18.1144C27.1339 18.1325 26.856 18.1475 26.5661 18.1536ZM25.1675 22.0379V12.6432H1.63616V22.0379C1.63616 24.9195 2.80765 27.5392 4.69339 29.4392C6.57912 31.3393 9.17911 32.5196 12.0391 32.5196H14.7676C17.6276 32.5196 20.2275 31.3393 22.1133 29.4392C23.996 27.5392 25.1675 24.9195 25.1675 22.0379ZM1.2118 37.5C0.826281 37.5 0.51249 37.1838 0.51249 36.7954C0.51249 36.407 0.826281 36.0908 1.2118 36.0908H25.9864C26.3719 36.0908 26.6857 36.407 26.6857 36.7954C26.6857 37.1838 26.3719 37.5 25.9864 37.5H1.2118ZM7.24257 1.63156C7.00647 1.32442 7.06326 0.884801 7.36808 0.646923C7.67291 0.409044 8.10923 0.466256 8.34532 0.77339C9.13428 1.8062 8.80256 2.92032 8.42003 4.20606C8.04946 5.44665 7.6221 6.89198 8.52164 8.32226C8.72784 8.65048 8.63221 9.08408 8.30647 9.29486C7.98072 9.50262 7.55038 9.40627 7.34119 9.07805C6.10096 7.10577 6.62694 5.33222 7.08119 3.80559C7.35613 2.88719 7.59222 2.08925 7.24257 1.63156ZM13.0492 1.63156C12.8131 1.32442 12.8699 0.884801 13.1747 0.646923C13.4795 0.409044 13.9159 0.466256 14.152 0.77339C14.9409 1.8062 14.6092 2.92032 14.2267 4.20606C13.8561 5.44665 13.4287 6.89198 14.3283 8.32226C14.5345 8.65048 14.4388 9.08408 14.1131 9.29486C13.7874 9.50262 13.357 9.40627 13.1478 9.07805C11.9046 7.10577 12.4336 5.33222 12.8878 3.80559C13.1628 2.88719 13.3989 2.08925 13.0492 1.63156Z" fill="#BCC6FF"/>
</svg>
