<svg width="47" height="38" viewBox="0 0 47 38" fill="none" xmlns="http://www.w3.org/2000/svg">
<path fill-rule="evenodd" clip-rule="evenodd" d="M12.721 10.4445H16.5276C16.4825 10.5513 16.4427 10.6616 16.4084 10.7738L14.9251 15.6525C14.7806 16.1286 14.7454 16.5852 14.795 17.0239L14.7996 17.0693L14.1672 17.7439C13.8881 17.9931 13.6542 18.2539 13.4654 18.5191C13.375 18.6454 13.2946 18.7736 13.2224 18.9044H12.721C12.5548 18.9044 12.4148 18.7549 12.4148 18.5725V10.7764C12.4148 10.594 12.5521 10.4445 12.721 10.4445ZM22.2718 32.9212C22.2691 32.8856 22.2691 32.8509 22.2727 32.8162C21.2529 32.8545 20.2222 32.8029 19.3035 32.7005C18.0741 32.5626 16.9666 32.2858 16.1383 31.864C15.5033 31.54 15.0182 31.1244 14.7445 30.6154C14.4536 30.0716 14.4057 29.4504 14.6677 28.7545C14.8438 28.2846 15.1672 27.7791 15.6595 27.2389C15.6902 26.898 15.7345 26.5518 15.7914 26.1985C15.8592 25.7847 15.9468 25.3735 16.0543 24.9668L16.0633 24.8983C16.2196 24.1267 16.4246 23.4174 16.636 22.6885L16.6767 22.5479L15.59 22.1572C15.281 22.0558 15.0254 21.8849 14.8366 21.6651L14.8077 21.6268C14.6451 21.4248 14.5367 21.1872 14.4933 20.9291C14.4491 20.6692 14.469 20.3862 14.5629 20.1014C14.6903 19.7098 14.9586 19.3076 15.3867 18.9436L16.7291 17.5116C16.505 17.1156 16.4156 16.6688 16.5764 16.1375L18.0596 11.2588C18.1906 10.8245 18.4914 10.481 18.8699 10.2807C19.0397 10.1909 19.2249 10.1294 19.4173 10.101L18.5483 9.37565C18.3135 9.18075 18.2837 8.83278 18.4824 8.60139L18.5727 8.51773C26.092 2.9199 32.7314 2.72678 37.5379 5.22489C40.3463 6.68531 42.5206 9.06773 43.8729 11.8275C45.1863 14.5098 45.7283 17.5552 45.329 20.4654C45.6904 20.6826 45.9794 20.9905 46.1745 21.3473C46.4528 21.8573 46.5413 22.4705 46.3724 23.0659L46.3462 23.1513C46.1556 23.7404 45.7392 24.2068 45.2197 24.4827C44.8394 24.6847 44.4031 24.7853 43.9587 24.7594C42.3111 27.8725 39.2515 30.4507 34.5064 31.6878C34.5281 31.9921 34.5579 32.292 34.594 32.5884C34.7656 33.9723 35.0962 35.2707 35.5624 36.4909C35.6717 36.7747 35.5253 37.0916 35.2372 37.1984C34.949 37.3061 34.6265 37.1619 34.5181 36.878C34.0195 35.5733 33.6672 34.1903 33.4847 32.7219C33.3032 31.2579 33.2887 29.7023 33.4621 28.0443C33.4774 27.8993 33.5503 27.7663 33.6649 27.6742C33.7795 27.5821 33.9265 27.5385 34.0737 27.553C34.3799 27.5842 34.603 27.8538 34.5723 28.1555C34.4856 28.9841 34.4495 29.7859 34.4585 30.5637C38.5948 29.4282 41.3129 27.1899 42.8323 24.4889L34.0439 21.8973C33.6618 22.8514 32.9518 23.6061 32.0837 24.0662C31.1171 24.5797 29.9491 24.7319 28.82 24.399L25.3558 23.3764L25.344 23.3747L25.2871 23.3569L25.2754 23.3533L20.3541 21.9018C19.5312 21.6597 19.2918 21.0012 19.0388 20.3034C18.9079 19.9412 18.7697 19.563 18.5429 19.3334C18.3839 19.1723 18.1798 18.9988 17.972 18.8225C17.7959 18.6739 17.617 18.5217 17.4472 18.3642L16.1365 19.7588C15.8592 19.9884 15.6939 20.2233 15.6243 20.4369C15.5873 20.5508 15.5782 20.6576 15.5936 20.7484C15.6053 20.8196 15.6333 20.8846 15.6731 20.938L15.6884 20.9549C15.7471 21.0234 15.833 21.0786 15.9396 21.1151C16.8826 21.4185 17.8898 21.8137 18.832 22.1519L18.4517 23.1851L17.729 22.9252L17.711 22.9893C17.5258 23.631 17.3442 24.2575 17.2015 24.9134C17.486 25.1635 17.7769 25.3513 18.0759 25.4723C18.4273 25.6147 18.8013 25.6663 19.1924 25.6183C19.4986 25.5809 19.7778 25.7962 19.8148 26.0979C19.8518 26.3996 19.6341 26.6746 19.3279 26.7111C18.7453 26.7832 18.1861 26.7049 17.6513 26.4886C17.4074 26.389 17.1699 26.2599 16.9386 26.1042L16.8917 26.3694C16.8311 26.7396 16.7869 27.1214 16.758 27.5112C16.7477 27.6459 16.6876 27.7723 16.589 27.8663C16.1383 28.3389 15.8546 28.7616 15.7155 29.1327C15.5728 29.5136 15.5891 29.8366 15.7318 30.1027C15.8917 30.4018 16.2133 30.6652 16.6505 30.8868C17.3523 31.2446 18.3261 31.484 19.4264 31.6077C20.4778 31.7242 21.6874 31.7723 22.84 31.6824C23.7768 31.6094 24.671 31.4457 25.3973 31.1573C26.1046 30.877 26.5969 30.2095 27.0161 29.6409L27.3431 29.2048C27.8661 28.5124 28.7757 27.3065 29.5797 27.0039C29.8678 26.8962 30.1903 27.0386 30.2996 27.3225C30.4098 27.6073 30.2653 27.925 29.9762 28.0336C29.474 28.2223 28.6899 29.2626 28.2391 29.8589L27.9203 30.2861C27.4135 30.9722 26.82 31.7768 25.8119 32.1772C25.0893 32.4638 24.2474 32.6427 23.3685 32.7379C23.3775 32.7691 23.3829 32.8011 23.3856 32.8349C23.4272 33.3529 23.457 34.3772 23.4281 35.3232C23.4064 36.0281 23.3504 36.6938 23.2429 37.0916C23.224 37.1614 23.1913 37.2269 23.1467 37.2843C23.1021 37.3416 23.0464 37.3898 22.9829 37.426C22.9194 37.4622 22.8493 37.4857 22.7766 37.4952C22.7039 37.5047 22.63 37.5 22.5591 37.4814C22.2619 37.4031 22.0848 37.1014 22.1643 36.8077C22.2492 36.4917 22.2953 35.9151 22.3143 35.293C22.3414 34.4039 22.3125 33.4232 22.2718 32.9212ZM26.2826 20.1317C26.4613 20.1849 26.6113 20.3057 26.6999 20.4676C26.7884 20.6296 26.8082 20.8195 26.755 20.9958C26.7013 21.1719 26.5788 21.3198 26.4146 21.407C26.2503 21.4943 26.0576 21.5138 25.8788 21.4613C25.5057 21.3509 25.2943 20.9647 25.4054 20.598C25.5174 20.2305 25.9095 20.0231 26.2826 20.1317ZM23.0839 19.1892C23.1726 19.2152 23.3269 19.3156 23.3269 19.3156C23.3269 19.3156 23.4582 19.444 23.5021 19.5242C23.546 19.6044 23.5734 19.6923 23.5827 19.783C23.592 19.8736 23.583 19.9652 23.5563 20.0525C23.4452 20.4191 23.0523 20.6274 22.6801 20.5179C22.308 20.4076 22.0957 20.0222 22.2077 19.6547C22.234 19.5673 22.2776 19.486 22.336 19.4152C22.3943 19.3445 22.4663 19.2859 22.5477 19.2426C22.6291 19.1994 22.7184 19.1724 22.8104 19.1632C22.9024 19.1541 22.9954 19.1629 23.0839 19.1892ZM17.6251 16.5523L17.6233 16.5683V16.5718L17.6224 16.5834V16.6466L17.6233 16.6626L17.6251 16.6688V16.6777L17.627 16.6929V16.6938L17.6297 16.7098L17.6306 16.7169L17.6324 16.7249L17.6351 16.7409V16.7418L17.6387 16.757L17.6414 16.7659L17.6423 16.7721L17.6513 16.8041L17.655 16.8148L17.6559 16.8193L17.6622 16.8353L17.6631 16.8388L17.6676 16.8513L17.6721 16.8629L17.6739 16.8673L17.6793 16.8833L17.6821 16.8878L17.6866 16.8985L17.6929 16.9118L17.6938 16.9145L17.701 16.9305L17.7037 16.9358L17.7092 16.9465L17.7164 16.9599V16.9616L17.7254 16.9777L17.729 16.9839L17.7335 16.9937L17.7426 17.0088L17.7516 17.0248L17.757 17.0328L17.7616 17.0408L17.7706 17.056L17.7724 17.0578L17.7814 17.072L17.7877 17.0818L17.7914 17.088L17.804 17.1058L17.813 17.1192L17.8212 17.1307L17.8248 17.1352L17.8356 17.1512L17.8383 17.1548L17.8474 17.1663L17.8573 17.1788L17.8591 17.1824L17.8844 17.2135L17.8952 17.2268L17.897 17.2295L17.9097 17.2446L17.9151 17.2509L17.9223 17.2607L17.9359 17.2758V17.2767L17.9494 17.2918L17.9567 17.2998L17.963 17.3078L17.9774 17.3239L18.0199 17.3701L18.0217 17.3719L18.0353 17.3862L18.0443 17.3959L18.0497 17.4013L18.0642 17.4173L18.0678 17.42L18.0795 17.4324L18.0913 17.444L18.0949 17.4485L18.1111 17.4636L18.1157 17.468L18.1265 17.4796L18.14 17.4921L18.1418 17.4947L18.1581 17.5107L18.1644 17.5161L18.1744 17.5259L18.1888 17.5401L18.1906 17.541L18.2069 17.557C18.3605 17.703 18.5312 17.8463 18.6974 17.9878C18.9241 18.1791 19.1463 18.3678 19.3433 18.5671C19.7416 18.9721 19.9205 19.4633 20.0912 19.9332C20.2466 20.3613 20.3938 20.7662 20.6729 20.8481L25.615 22.3058L25.6195 22.3067L25.624 22.3085L25.6295 22.3094L25.6349 22.3112C26.4695 22.5577 27.3331 22.4447 28.0504 22.0638C28.7649 21.6846 29.334 21.0394 29.5851 20.2198L31.1361 15.1168C31.1786 14.9726 31.1587 14.8222 31.0909 14.6976C31.025 14.5783 30.9139 14.4804 30.7757 14.4359L30.7684 14.4342L30.7621 14.4324L30.7477 14.4279L30.7341 14.4235L21.3315 11.6504L20.1725 11.3086L19.8238 11.2054C19.6816 11.1645 19.5287 11.1805 19.3984 11.2499C19.2728 11.3166 19.1716 11.4306 19.1292 11.573L17.6459 16.4517C17.636 16.4855 17.6297 16.5193 17.6251 16.5523ZM35.4079 17.4591L44.2523 20.0685C44.5594 17.4458 44.0499 14.7181 42.8675 12.3054C41.6146 9.74765 39.6065 7.54412 37.0176 6.19762C32.6817 3.94425 26.6836 4.09376 19.8076 8.98674L21.6874 10.5593C21.7054 10.5789 21.7226 10.6002 21.7371 10.6216L31.0665 13.3742L31.081 13.3778L31.1009 13.384L34.5859 14.411C35.0267 14.541 35.3754 14.8382 35.5795 15.2102C35.7819 15.5813 35.8424 16.0299 35.7105 16.4642L35.4079 17.4591ZM33.1406 21.0866L33.1442 21.0732L33.1478 21.0599L34.1776 17.6718L34.1875 17.6407L34.641 16.15C34.6843 16.0058 34.6636 15.8563 34.5958 15.7308C34.5261 15.6031 34.4079 15.5078 34.267 15.4656L32.2725 14.8774C32.2824 15.0598 32.2607 15.2467 32.2056 15.4309L30.6447 20.5669C30.2996 21.6615 29.5363 22.5248 28.5788 23.032C28.5183 23.065 28.4568 23.0961 28.3945 23.1255L29.1389 23.3444C29.9744 23.5909 30.8389 23.4779 31.5552 23.0979C32.2707 22.7179 32.8416 22.0691 33.0918 21.2459L33.1406 21.0866ZM35.0881 18.5128L34.3781 20.8481L43.3318 23.4895C45.4167 24.0537 45.8927 21.9561 44.5368 21.3313C44.3914 21.2646 44.2378 21.2067 44.0743 21.164L35.0881 18.5128ZM0.209155 31.6913L0.208252 0.925512C0.20823 0.844845 0.231489 0.765836 0.275315 0.697698C0.319142 0.629561 0.381729 0.575104 0.455776 0.54068C0.529824 0.506256 0.61228 0.493284 0.693527 0.503277C0.774774 0.51327 0.851462 0.545815 0.914648 0.597118C3.66796 2.51408 7.28756 3.64611 11.1664 4.1694C14.8538 4.66778 18.7697 4.61616 22.4064 4.16673C21.7633 4.48 21.1129 4.82886 20.4562 5.21599C17.3551 5.46518 14.1257 5.42424 11.0526 5.00952C10.3101 4.90985 9.57567 4.78792 8.85482 4.64286V26.1184C10.544 25.6636 12.3245 25.4687 14.1564 25.5693C14.1347 25.6859 14.1139 25.8069 14.0932 25.9324L14.02 26.4094C12.0137 26.3097 10.0734 26.5856 8.25683 27.1801C5.4737 28.0914 2.97422 29.7557 0.959813 31.9734C0.801733 32.147 0.529834 32.1621 0.353686 32.0064C0.308771 31.9666 0.272733 31.918 0.247854 31.8638C0.222975 31.8096 0.209797 31.7508 0.209155 31.6913ZM7.99125 26.3756V4.45597C5.43847 3.86682 3.07087 2.9733 1.07183 1.72113V30.6278C3.04287 28.6904 5.39782 27.2246 7.98764 26.3774L7.99125 26.3756ZM3.05913 5.98047L5.58571 7.85828C5.76637 7.99177 5.9904 8.05852 5.9904 8.29524V20.8472C5.9904 21.0839 5.76095 21.1444 5.58571 21.2842L3.05913 23.2964C2.88479 23.4343 2.65534 23.0988 2.65534 22.8585V6.41744C2.65534 6.17715 2.88027 5.84786 3.05913 5.98047ZM12.787 21.1605H11.0454C10.8385 21.1605 10.647 21.075 10.5061 20.9362C10.3561 20.7911 10.2622 20.5838 10.2622 20.3559V9.09265C10.2622 8.86482 10.3552 8.66013 10.5034 8.51328C10.6443 8.37534 10.8358 8.28901 11.0454 8.28901H16.7309C16.6555 8.52675 16.6207 8.77516 16.6279 9.02412H11.0454C11.0101 9.02412 10.9794 9.03658 10.9596 9.05616C10.9478 9.06684 10.9415 9.08108 10.9415 9.09265V20.3559C10.9415 20.3684 10.9478 20.3809 10.9587 20.3915C10.9794 20.4138 11.0101 20.4262 11.0454 20.4262H12.7545C12.7373 20.6701 12.749 20.9175 12.787 21.1605Z" fill="#BCC6FF"/>
</svg>
