<svg width="39" height="36" viewBox="0 0 39 36" fill="none" xmlns="http://www.w3.org/2000/svg">
<path fill-rule="evenodd" clip-rule="evenodd" d="M33.31 14.9803C32.9201 14.7961 31.9594 14.5465 31.6568 14.2468C31.3936 13.9812 31.1708 13.6783 30.9955 13.3479C30.8202 13.6783 30.5974 13.9812 30.3342 14.2468C29.6667 14.9116 28.1507 15.3267 27.1244 15.3267C26.0981 15.3267 24.5821 14.9116 23.9239 14.2468C23.6607 13.9812 23.4379 13.6783 23.2626 13.3479C23.0873 13.6783 22.8645 13.9812 22.6013 14.2468C21.9338 14.9116 20.4178 15.3267 19.3915 15.3267C18.3653 15.3267 16.8493 14.9116 16.1817 14.2468C15.9119 13.9825 15.6827 13.6795 15.5017 13.3479C15.3264 13.6783 15.1036 13.9812 14.8404 14.2468C14.1729 14.9116 12.6569 15.3267 11.6306 15.3267C10.6043 15.3267 9.08834 14.9116 8.4208 14.2468C8.15761 13.9812 7.9348 13.6783 7.7595 13.3479C7.5842 13.6783 7.36139 13.9812 7.0982 14.2468C6.65837 14.6838 5.5011 15.0146 4.8897 15.1832C3.65756 15.333 2.20395 15.1551 1.28998 14.2468C0.948823 13.9049 0.678436 13.4989 0.494304 13.0523C0.310173 12.6056 0.215914 12.127 0.216927 11.6438V10.1956C0.217875 10.1237 0.23606 10.053 0.269956 9.98958L2.86525 1.67172C3.07737 0.988189 3.5983 0.548107 4.60584 0.498169H33.9558C34.8604 0.594925 35.4499 0.975704 35.6932 1.66548L38.5006 9.97397C38.5363 10.0336 38.5567 10.1012 38.5599 10.1706C38.5613 10.1851 38.5613 10.1998 38.5599 10.2143V11.6438C38.5597 12.1276 38.464 12.6066 38.2782 13.0533C38.0925 13.5 37.8203 13.9056 37.4775 14.2468C36.392 15.333 34.7387 15.3049 33.3225 14.9803H33.31ZM6.67085 33.8164V20.6077C6.67414 19.8025 6.99529 19.0311 7.56436 18.4617C8.13343 17.8923 8.90431 17.571 9.70909 17.5677H28.7589C29.5637 17.571 30.3346 17.8923 30.9037 18.4617C31.4727 19.0311 31.7939 19.8025 31.7972 20.6077V33.8164H33.9214C34.0149 33.8164 34.1046 33.7793 34.1707 33.7131C34.2368 33.647 34.2739 33.5573 34.2739 33.4637V16.9778C34.8333 17.0283 35.3967 17.0115 35.9521 16.9279V33.47C35.9513 34.0086 35.7371 34.5249 35.3564 34.9058C34.9758 35.2867 34.4598 35.501 33.9214 35.5018H4.84291C4.5761 35.5013 4.312 35.4481 4.06577 35.3453C3.81954 35.2425 3.59602 35.092 3.40802 34.9026C3.21911 34.7143 3.06923 34.4906 2.96699 34.2442C2.86474 33.9978 2.81215 33.7336 2.81222 33.4668V16.9466C3.36469 17.046 3.92662 17.0827 4.48731 17.0559V33.4637C4.48764 33.5103 4.49718 33.5563 4.51538 33.5992C4.53359 33.642 4.56009 33.6809 4.59337 33.7134C4.62631 33.7457 4.66533 33.7712 4.70816 33.7883C4.75099 33.8055 4.79679 33.8139 4.84291 33.8133L6.67085 33.8164ZM27.4894 22.2994C26.8546 22.0753 26.262 21.7461 25.7363 21.3256C25.9765 22.1496 25.2965 24.0316 24.37 26.1977C23.7461 24.5154 22.9975 22.7644 23.0193 21.3256C22.7809 21.5546 22.5083 21.7452 22.2114 21.8905L21.2507 22.315C20.9668 22.4367 20.8607 22.7519 20.842 23.1608C20.5048 25.5541 20.3204 27.9664 20.2899 30.3832H21.703L21.8995 25.8294C21.9939 26.1189 22.0658 26.4152 22.1147 26.7158C22.2051 27.2708 22.2051 27.8368 22.1147 28.3919L22.0523 30.3769H23.9801V33.8102H14.3101V31.3975C14.4084 31.3513 14.5014 31.2948 14.5877 31.229C14.8553 31.3539 15.1545 31.3942 15.4456 31.3445C15.7079 31.2886 15.9453 31.1496 16.1225 30.9481C16.2931 31.0225 16.4801 31.0516 16.6652 31.0323C16.7821 31.019 16.8947 30.9806 16.9954 30.9197C17.0961 30.8589 17.1824 30.777 17.2485 30.6797C17.9722 29.6996 17.2236 27.7676 16.737 26.9343C16.3422 26.2925 15.8545 25.7129 15.2896 25.2145C15.237 25.169 15.1908 25.1165 15.1523 25.0585C15.1235 25.0142 15.1014 24.9658 15.0868 24.9149C15.0729 24.8396 15.0729 24.7624 15.0868 24.6871C15.1021 24.5982 15.1272 24.5113 15.1617 24.428L15.4736 23.7164L15.6234 23.3824C15.682 23.2674 15.7125 23.1401 15.7125 23.011C15.7125 22.8819 15.682 22.7546 15.6234 22.6396C15.5525 22.5013 15.4445 22.3857 15.3114 22.3056C15.277 22.2861 15.2416 22.2684 15.2054 22.2526V21.4411C15.2054 21.3914 15.1857 21.3438 15.1506 21.3086C15.1155 21.2735 15.0679 21.2538 15.0182 21.2538C14.9686 21.2538 14.921 21.2735 14.8859 21.3086C14.8508 21.3438 14.8311 21.3914 14.8311 21.4411V22.1808C14.4829 22.1824 14.1484 22.3162 13.8953 22.5553C13.7793 22.4394 13.6416 22.3475 13.4902 22.2849C13.3387 22.2222 13.1764 22.19 13.0125 22.1901V21.4411C13.0125 21.3914 12.9928 21.3438 12.9577 21.3086C12.9226 21.2735 12.875 21.2538 12.8253 21.2538C12.7757 21.2538 12.7281 21.2735 12.693 21.3086C12.6579 21.3438 12.6382 21.3914 12.6382 21.4411V22.265C12.5972 22.2806 12.5576 22.2994 12.5196 22.3212C12.3641 22.3963 12.2324 22.513 12.1391 22.6583C12.0689 22.7749 12.0277 22.9066 12.019 23.0424C12.0103 23.1782 12.0344 23.3141 12.0892 23.4386L12.217 23.7507L12.451 24.3312V24.35C12.7099 24.8556 12.529 25.0241 12.2451 25.2863C12.164 25.3643 12.0767 25.4455 11.9831 25.5454C11.7347 25.8027 11.5083 26.0805 11.3062 26.3756C10.6166 27.3543 10.2313 28.5151 10.1988 29.7121C10.1988 29.8026 10.1988 29.8588 10.1988 29.9119C10.1832 30.3738 10.1708 30.689 10.7884 30.9013C10.9237 30.9479 11.0665 30.969 11.2095 30.9637C11.3143 30.958 11.4186 30.9444 11.5214 30.9231C11.735 31.1368 12.0097 31.2786 12.3075 31.3289C12.5761 31.3653 12.8493 31.315 13.0873 31.1853C13.2351 31.3044 13.4046 31.3934 13.5864 31.4475V33.8164H8.08079V20.6077C8.08244 20.1761 8.25452 19.7627 8.55953 19.4575C8.86454 19.1523 9.27775 18.9801 9.70909 18.9785H28.7558C29.1877 18.9785 29.6018 19.1501 29.9072 19.4557C30.2126 19.7612 30.3841 20.1756 30.3841 20.6077V33.8164H24.7693V30.3832H26.7002L26.644 28.395C26.5723 27.8632 26.5786 27.3238 26.6627 26.7938C26.7126 26.4796 26.7781 26.1582 26.8592 25.8294L27.0433 30.3988H28.4563C28.438 28.017 28.2556 25.6392 27.9105 23.2825C27.9105 22.7332 27.7826 22.4055 27.4894 22.2963V22.2994ZM25.5866 24.0191H26.6846C26.687 24.0191 26.6895 24.0196 26.6917 24.0206C26.694 24.0215 26.6961 24.0229 26.6978 24.0246C26.6995 24.0264 26.7009 24.0284 26.7019 24.0307C26.7028 24.033 26.7033 24.0354 26.7033 24.0379V24.2813C26.7004 24.283 26.6972 24.2838 26.6939 24.2838C26.6906 24.2838 26.6874 24.283 26.6846 24.2813H25.5866C25.5837 24.283 25.5805 24.2838 25.5772 24.2838C25.5739 24.2838 25.5707 24.283 25.5678 24.2813V24.0379C25.5678 24.0379 25.5678 24.0191 25.5866 24.0191ZM24.3762 26.3787C24.4089 26.3787 24.4409 26.3884 24.4681 26.4066C24.4953 26.4248 24.5165 26.4506 24.529 26.4808C24.5415 26.5111 24.5448 26.5443 24.5384 26.5764C24.532 26.6085 24.5163 26.638 24.4931 26.6611C24.47 26.6842 24.4406 26.7 24.4085 26.7064C24.3764 26.7128 24.3432 26.7095 24.313 26.697C24.2828 26.6844 24.257 26.6632 24.2388 26.636C24.2206 26.6088 24.2109 26.5769 24.2109 26.5441C24.2109 26.5003 24.2283 26.4582 24.2593 26.4272C24.2903 26.3961 24.3324 26.3787 24.3762 26.3787Z" fill="#BCC6FF"/>
</svg>
