<svg width="49" height="36" viewBox="0 0 49 36" fill="none" xmlns="http://www.w3.org/2000/svg">
<path d="M41.1622 10.1537C41.2732 10.1775 41.3789 10.2211 41.474 10.2824C42.1449 10.6926 42.7336 11.2212 43.2108 11.8418C43.6227 12.3792 43.852 13.0314 43.8661 13.7052C44.2608 14.6993 44.845 16.0092 45.445 17.362C46.0134 18.6095 46.6292 19.8921 47.1818 21.0032C47.8291 22.278 48.3897 23.4904 48.5041 24.773C48.6226 26.1336 48.2515 27.5019 46.9923 28.9522C45.37 30.8235 42.4885 32.3127 38.7859 33.377C35.0834 34.4412 30.3861 35.1274 25.3415 35.3067C24.9468 35.3067 24.5797 35.3262 24.2837 35.3262C23.9876 35.3262 23.6403 35.3262 23.2297 35.3067C18.1851 35.1274 13.5352 34.4724 9.76953 33.3926C6.06699 32.3283 3.18943 30.839 1.56315 28.9678C0.303972 27.5136 -0.0670716 26.1492 0.0513466 24.7886C0.165818 23.506 0.72633 22.2936 1.37368 21.0188C1.93814 19.9077 2.55787 18.6251 3.11048 17.3776C3.72626 16.0209 4.29467 14.7149 4.68939 13.7208C4.70765 12.8472 5.04236 12.0091 5.63279 11.3583C6.32215 10.5924 7.16311 9.97414 8.10379 9.54165C8.14579 9.52141 8.18935 9.50447 8.23405 9.49097C8.7059 9.22582 9.20138 9.00398 9.71427 8.82823C9.94321 7.05052 11.2932 5.79132 12.4774 4.67635C12.7892 4.38396 13.0892 4.10327 13.3379 3.83428C14.6951 2.40978 16.4608 1.42903 18.3983 1.02348C20.362 0.585569 22.4123 0.721016 24.2994 1.41332C24.4258 1.46011 24.8126 1.65503 25.16 1.82656C25.2003 1.84361 25.2356 1.87043 25.2626 1.90453C26.1816 1.22133 27.275 0.804226 28.4204 0.699902C29.7418 0.593023 31.0692 0.815543 32.2808 1.34705C33.4598 1.83987 34.5139 2.58404 35.3676 3.5263C36.034 4.23739 36.5066 5.10394 36.7413 6.04472C37.8787 6.43764 38.9074 7.0878 39.7451 7.94328L39.7886 7.99396C40.3584 8.6405 40.8255 9.36871 41.174 10.1537H41.1622ZM24.2363 29.3303C24.1519 29.4676 24.0421 29.588 23.9126 29.6851C23.6885 29.8202 23.4394 29.9098 23.1798 29.9486C22.9202 29.9874 22.6554 29.9747 22.4008 29.9112C22.3115 29.894 22.2323 29.8437 22.1795 29.7705C22.1267 29.6974 22.1043 29.607 22.117 29.518C22.1296 29.4291 22.1764 29.3483 22.2475 29.2923C22.3187 29.2364 22.4089 29.2095 22.4995 29.2173C22.8293 29.3069 23.181 29.2722 23.4863 29.1198C23.6876 28.9756 23.8179 28.6637 23.8337 28.0789H23.6521C23.5638 28.0697 23.4821 28.0286 23.4227 27.9635C23.3634 27.8983 23.3305 27.8138 23.3305 27.7261C23.3305 27.6385 23.3634 27.5539 23.4227 27.4887C23.4821 27.4236 23.5638 27.3825 23.6521 27.3733H24.7534C24.8417 27.3825 24.9234 27.4236 24.9827 27.4887C25.0421 27.5539 25.075 27.6385 25.075 27.7261C25.075 27.8138 25.0421 27.8983 24.9827 27.9635C24.9234 28.0286 24.8417 28.0697 24.7534 28.0789H24.5521C24.5635 28.2621 24.5994 28.443 24.6587 28.6169C24.7228 28.8173 24.8466 28.9939 25.0139 29.1237C25.1607 29.229 25.3378 29.285 25.5192 29.2836C25.6727 29.2849 25.8252 29.2585 25.9691 29.2056C26.0581 29.1746 26.1559 29.1797 26.2411 29.2199C26.3262 29.2601 26.3917 29.3321 26.4231 29.42C26.4545 29.5079 26.4493 29.6045 26.4085 29.6886C26.3678 29.7726 26.295 29.8373 26.206 29.8683C25.9807 29.9484 25.7428 29.988 25.5034 29.9853C25.1759 29.9808 24.8577 29.8774 24.5915 29.689C24.4568 29.5864 24.3372 29.4656 24.2363 29.3303ZM26.3599 26.2583C26.5407 26.2594 26.7138 26.3307 26.8417 26.457C26.9695 26.5833 27.0418 26.7542 27.0428 26.9328C27.0428 27.112 26.971 27.2839 26.843 27.4111C26.7151 27.5382 26.5414 27.6101 26.3599 27.6111C26.1779 27.6106 26.0034 27.5392 25.8744 27.4123C25.7521 27.2822 25.6856 27.1103 25.6889 26.9328C25.69 26.7542 25.7623 26.5834 25.8902 26.4572C25.9536 26.3936 26.0292 26.3433 26.1126 26.3092C26.196 26.275 26.2854 26.2577 26.3757 26.2583H26.3599ZM22.0811 26.2583C22.1714 26.2577 22.2608 26.275 22.3442 26.3092C22.4276 26.3433 22.5032 26.3936 22.5666 26.4572C22.6945 26.5834 22.7668 26.7542 22.7679 26.9328C22.767 27.1125 22.6947 27.2846 22.5666 27.4123C22.4376 27.5392 22.2631 27.6106 22.0811 27.6111C21.8996 27.6101 21.7259 27.5382 21.598 27.4111C21.47 27.2839 21.3982 27.112 21.3982 26.9328C21.3979 26.8442 21.4155 26.7565 21.4501 26.6748C21.4847 26.5932 21.5355 26.5191 21.5995 26.4572C21.662 26.3936 21.7369 26.3432 21.8197 26.309C21.9024 26.2748 21.9914 26.2576 22.0811 26.2583ZM27.3586 29.5292C27.2663 29.5165 27.1827 29.4686 27.1258 29.3957C27.069 29.3227 27.0434 29.2307 27.0546 29.1393C27.0605 29.0939 27.0753 29.0502 27.0984 29.0105C27.1214 28.9708 27.1521 28.9361 27.1888 28.9082C27.2255 28.8803 27.2674 28.8598 27.3121 28.848C27.3568 28.8361 27.4035 28.8331 27.4494 28.8391L29.052 29.0496C29.2508 28.6792 29.3741 28.274 29.4151 27.8567L27.5125 28.4688C27.468 28.4831 27.4209 28.4886 27.3742 28.485C27.3275 28.4814 27.2819 28.4688 27.2401 28.4478C27.1983 28.4268 27.1611 28.3978 27.1307 28.3627C27.1002 28.3275 27.0771 28.2867 27.0625 28.2427C27.048 28.1986 27.0424 28.1522 27.0461 28.106C27.0497 28.0599 27.0626 28.0149 27.0838 27.9736C27.1051 27.9323 27.1344 27.8956 27.17 27.8655C27.2056 27.8354 27.2469 27.8126 27.2915 27.7982L29.3954 27.1238C29.2863 26.4324 29.038 25.7696 28.6651 25.1746C28.6329 25.1217 28.6165 25.0608 28.6178 24.9991V22.7341L27.5481 23.7282C27.4975 23.7785 27.4328 23.8124 27.3623 23.8257C27.2919 23.8389 27.219 23.8307 27.1533 23.8023C26.2168 23.3701 25.195 23.1477 24.1613 23.1512C23.1386 23.1705 22.1304 23.3932 21.1969 23.8062C21.1319 23.8351 21.0596 23.8442 20.9893 23.8324C20.919 23.8206 20.8539 23.7884 20.8022 23.7399L19.8469 22.8394L19.7403 25.0147C19.7389 25.0664 19.7254 25.1171 19.7009 25.1629C19.374 25.7561 19.1549 26.4013 19.0535 27.0692L21.2837 27.7826C21.3738 27.8116 21.4485 27.8747 21.4914 27.958C21.5343 28.0414 21.542 28.1381 21.5127 28.2271C21.4834 28.316 21.4195 28.3898 21.3351 28.4322C21.2507 28.4746 21.1527 28.4821 21.0627 28.4532L19.0062 27.8138C19.0227 28.2425 19.1163 28.6649 19.2825 29.0613L21.1179 28.8352C21.1661 28.8252 21.2158 28.8252 21.2639 28.8351C21.3121 28.8451 21.3576 28.8648 21.3976 28.893C21.4377 28.9212 21.4713 28.9574 21.4965 28.9991C21.5216 29.0408 21.5377 29.0873 21.5438 29.1355C21.5498 29.1837 21.5456 29.2326 21.5315 29.2792C21.5174 29.3257 21.4937 29.3689 21.4618 29.4059C21.43 29.4429 21.3906 29.4729 21.3464 29.4942C21.3022 29.5154 21.2539 29.5273 21.2048 29.5292L19.6535 29.7202C20.0427 30.257 20.5502 30.6995 21.1377 31.0145C21.8309 31.396 22.5947 31.6359 23.3837 31.7201C24.3604 31.8554 25.3559 31.7403 26.2746 31.386C27.1932 31.0317 28.0042 30.45 28.6296 29.6968L27.3586 29.5292ZM29.798 29.1393L30.2835 29.2056C30.3309 29.2115 30.3767 29.2265 30.4183 29.2499C30.4598 29.2733 30.4963 29.3045 30.5256 29.3418C30.5549 29.379 30.5765 29.4217 30.5892 29.4672C30.6018 29.5127 30.6053 29.5603 30.5993 29.6071C30.5933 29.654 30.5781 29.6992 30.5544 29.7402C30.5308 29.7812 30.4992 29.8173 30.4614 29.8462C30.4237 29.8752 30.3805 29.8965 30.3344 29.909C30.2883 29.9215 30.2402 29.9249 30.1927 29.919L29.427 29.8176C29.3796 29.8917 29.3283 29.9619 29.277 30.0321C28.5835 30.9113 27.6681 31.5949 26.6226 32.0144C25.5772 32.4339 24.4384 32.5744 23.3205 32.4218C22.4386 32.3279 21.5841 32.063 20.8061 31.6421C20.0467 31.2337 19.4054 30.6406 18.943 29.919L18.8719 29.8098L18.2996 29.88C18.2532 29.8857 18.2061 29.8822 18.1611 29.8699C18.1161 29.8575 18.0739 29.8366 18.0371 29.8081C18.0002 29.7797 17.9694 29.7444 17.9464 29.7042C17.9234 29.6641 17.9086 29.6198 17.9029 29.574C17.8972 29.5282 17.9007 29.4817 17.9132 29.4372C17.9257 29.3927 17.9469 29.3511 17.9757 29.3147C18.0044 29.2783 18.0402 29.2479 18.0809 29.2252C18.1215 29.2024 18.1664 29.1878 18.2128 29.1822L18.5562 29.1393C18.3696 28.6404 18.2785 28.1117 18.2878 27.5799L17.6601 27.3772C17.6154 27.3631 17.574 27.3403 17.5382 27.3103C17.5025 27.2802 17.4731 27.2435 17.4518 27.2021C17.4305 27.1608 17.4177 27.1157 17.4142 27.0695C17.4107 27.0233 17.4164 26.9768 17.4312 26.9328C17.4455 26.8891 17.4684 26.8487 17.4986 26.8138C17.5288 26.779 17.5658 26.7504 17.6073 26.7297C17.6487 26.709 17.694 26.6967 17.7403 26.6934C17.7866 26.6901 17.8332 26.696 17.8772 26.7106L18.3549 26.8626C18.4729 26.1819 18.6994 25.524 19.0259 24.9134L19.164 22.0519C19.1692 21.9591 19.2109 21.8721 19.2803 21.8094C19.3496 21.7467 19.4411 21.7134 19.5351 21.7166C19.6212 21.7192 19.703 21.7541 19.764 21.8141L21.114 23.0811C22.0729 22.6863 23.0989 22.4746 24.1376 22.4573C25.1936 22.4528 26.2391 22.6639 27.2086 23.0772L28.7164 21.6854C28.783 21.6199 28.8732 21.5832 28.9671 21.5832C29.0611 21.5832 29.1512 21.6199 29.2178 21.6854C29.2778 21.7505 29.3115 21.8352 29.3125 21.9232V24.8978C29.6834 25.509 29.9401 26.1812 30.0704 26.8821L30.6743 26.6911C30.7183 26.6765 30.7649 26.6706 30.8112 26.6739C30.8576 26.6772 30.9028 26.6895 30.9443 26.7102C30.9858 26.7309 31.0227 26.7595 31.0529 26.7943C31.0831 26.8292 31.106 26.8696 31.1203 26.9133C31.149 27.0022 31.1411 27.0987 31.0983 27.1819C31.0554 27.2651 30.9811 27.3283 30.8914 27.3577L30.1256 27.6033V27.6501C30.1187 28.1632 30.0073 28.6696 29.798 29.1393ZM21.864 5.88098C22.0045 5.88098 22.1419 5.92214 22.2587 5.99924C22.3756 6.07635 22.4666 6.18594 22.5204 6.31417C22.5742 6.44239 22.5883 6.58349 22.5608 6.71961C22.5334 6.85573 22.4658 6.98076 22.3664 7.0789C22.267 7.17704 22.1404 7.24387 22.0026 7.27095C21.8648 7.29803 21.7219 7.28413 21.5921 7.23102C21.4623 7.17791 21.3513 7.08796 21.2732 6.97257C21.1951 6.85717 21.1535 6.7215 21.1535 6.58271C21.1545 6.39691 21.2297 6.21902 21.3627 6.08764C21.4957 5.95626 21.6759 5.882 21.864 5.88098ZM33.7295 12.3057C34.0725 12.3041 34.4083 12.4032 34.6944 12.5903C34.9804 12.7774 35.2037 13.0442 35.3361 13.3567C35.4684 13.6693 35.5039 14.0137 35.4379 14.3462C35.3719 14.6787 35.2075 14.9844 34.9655 15.2245C34.7235 15.4646 34.4147 15.6284 34.0784 15.6951C33.742 15.7617 33.3932 15.7283 33.0761 15.599C32.759 15.4697 32.4879 15.2503 32.2971 14.9687C32.1064 14.6871 32.0045 14.3559 32.0045 14.0171C32.0045 13.5632 32.1871 13.1279 32.5121 12.8069C32.837 12.486 33.2778 12.3057 33.7374 12.3057H33.7295ZM29.3085 5.0623C29.4596 4.98739 29.6241 4.9427 29.7926 4.93077C29.9612 4.91885 30.1305 4.93994 30.2908 4.99283C30.4511 5.04572 30.5992 5.12937 30.7267 5.23897C30.8541 5.34857 30.9584 5.48196 31.0335 5.63148C31.3532 6.25913 31.0927 8.25126 30.4611 8.56703C29.8296 8.88281 29.052 7.39749 28.7322 6.76594C28.5801 6.46451 28.5554 6.11577 28.6635 5.79634C28.7715 5.47691 29.0035 5.2129 29.3085 5.0623ZM13.8115 15.978C13.9521 15.978 14.0894 16.0192 14.2063 16.0963C14.3231 16.1734 14.4142 16.283 14.468 16.4112C14.5217 16.5395 14.5358 16.6805 14.5084 16.8167C14.481 16.9528 14.4133 17.0778 14.3139 17.176C14.2146 17.2741 14.088 17.3409 13.9502 17.368C13.8123 17.3951 13.6695 17.3812 13.5396 17.3281C13.4098 17.275 13.2988 17.185 13.2208 17.0696C13.1427 16.9542 13.101 16.8186 13.101 16.6798C13.101 16.4937 13.1759 16.3152 13.3091 16.1836C13.4424 16.052 13.6231 15.978 13.8115 15.978ZM14.4115 8.80094C14.6206 8.69507 14.8568 8.65301 15.0901 8.6801C15.3234 8.70719 15.5433 8.80222 15.7218 8.95309C15.9003 9.10395 16.0293 9.30385 16.0925 9.52734C16.1556 9.75083 16.15 9.98781 16.0764 10.2082C16.0028 10.4285 15.8644 10.6222 15.679 10.7647C15.4936 10.9072 15.2695 10.992 15.0351 11.0083C14.8008 11.0246 14.5668 10.9717 14.363 10.8563C14.1591 10.7409 13.9947 10.5683 13.8905 10.3603C13.8195 10.2245 13.7767 10.076 13.7645 9.92352C13.7523 9.7711 13.771 9.6178 13.8195 9.4726C13.868 9.3274 13.9454 9.19321 14.047 9.07788C14.1487 8.96255 14.2726 8.86841 14.4115 8.80094ZM19.0851 14.5278C19.2623 14.5278 19.4356 14.5797 19.5829 14.6769C19.7303 14.7742 19.8451 14.9124 19.9129 15.0741C19.9807 15.2358 19.9985 15.4137 19.9639 15.5854C19.9293 15.7571 19.844 15.9148 19.7187 16.0385C19.5934 16.1623 19.4337 16.2466 19.2599 16.2807C19.0861 16.3149 18.9059 16.2973 18.7422 16.2304C18.5785 16.1634 18.4385 16.0499 18.3401 15.9044C18.2416 15.7589 18.1891 15.5878 18.1891 15.4128C18.1891 15.1781 18.2835 14.953 18.4515 14.787C18.6196 14.621 18.8475 14.5278 19.0851 14.5278ZM24.8323 10.0718C25.1762 10.0711 25.5125 10.1711 25.7987 10.3593C26.0849 10.5475 26.3082 10.8154 26.4401 11.1289C26.5721 11.4425 26.6068 11.7878 26.5399 12.1209C26.473 12.454 26.3075 12.76 26.0644 13.0001C25.8212 13.2402 25.5114 13.4037 25.1741 13.4697C24.8369 13.5358 24.4873 13.5015 24.1698 13.3712C23.8523 13.2409 23.5811 13.0204 23.3905 12.7377C23.2 12.455 23.0987 12.1229 23.0995 11.7833C23.1005 11.3297 23.2834 10.895 23.6082 10.5743C23.9329 10.2535 24.3731 10.0729 24.8323 10.0718ZM9.15771 10.7463C9.09542 10.8052 9.02498 10.8551 8.9485 10.8944L8.74719 10.9958C8.46662 11.1804 8.21409 11.4036 7.99721 11.6585C7.48406 12.2823 7.23144 13.1244 7.20775 14.2822C7.51176 14.8483 7.92006 15.3533 8.41167 15.7714C9.86032 16.8045 11.9642 17.592 14.4115 18.1417C17.659 18.7929 20.966 19.1103 24.2797 19.089H24.8994C25.2192 19.089 25.5428 19.089 25.8626 19.0656C29.8098 18.9214 33.615 18.3444 36.6071 17.3776C37.5048 17.0938 38.3786 16.7405 39.2201 16.3211C40.2148 15.6917 41.08 14.8822 41.7701 13.9352C41.5261 13.4857 41.2336 13.0635 40.8977 12.676C40.5397 12.2583 40.2287 11.8034 39.9701 11.3194C39.6421 10.4996 39.1867 9.73542 38.6202 9.05434L38.5846 9.01536C37.8075 8.24619 36.8483 7.68072 35.7939 7.3702C35.649 7.32364 35.5208 7.23666 35.4249 7.11975C35.3289 7.00284 35.2693 6.86101 35.2531 6.71136C35.1284 5.90656 34.758 5.15853 34.1913 4.56719C33.4916 3.79867 32.6291 3.19174 31.6651 2.78949C30.6945 2.35022 29.6271 2.1611 28.5625 2.2398C27.5849 2.33267 26.662 2.72837 25.9257 3.37036C25.7795 3.50357 25.5878 3.57736 25.3889 3.57698C25.0587 3.5066 24.7426 3.38278 24.4534 3.21052C24.1495 3.05848 23.806 2.88695 23.7429 2.86356C22.1404 2.27319 20.3988 2.15535 18.7298 2.52439C17.1086 2.85965 15.6295 3.67571 14.4905 4.86348C14.2063 5.16756 13.8865 5.46774 13.555 5.77962C12.4892 6.78543 11.2774 7.93158 11.2616 9.33113C11.2698 9.50263 11.2205 9.672 11.1213 9.81298C11.0221 9.95396 10.8785 10.0587 10.7129 10.1108C10.1753 10.2685 9.65442 10.4774 9.15771 10.7346V10.7463ZM37.8939 18.7694C37.4439 18.9669 36.9741 19.1501 36.4847 19.319C33.4216 20.3833 29.5375 20.9525 24.8994 21.0032C20.1232 21.0734 15.7615 20.5782 12.3984 19.5257C11.3663 19.2095 10.366 18.7997 9.41033 18.3015C7.74853 17.6232 6.46567 16.8201 5.66042 15.9196C5.37227 16.594 5.04465 17.323 4.70518 18.0754C4.14072 19.319 3.521 20.6211 2.93286 21.7829C2.34471 22.9446 1.88683 23.9348 1.79999 24.9367C1.7171 25.8568 1.98551 26.808 2.89338 27.8528C4.28677 29.4629 6.88013 30.7767 10.2629 31.7513C13.8905 32.7922 18.3943 33.4237 23.2889 33.5953C23.5771 33.5953 23.9047 33.5953 24.2837 33.5953C24.6626 33.5953 24.9942 33.5953 25.2784 33.5953C30.1848 33.4276 34.6887 32.7883 38.3202 31.7474C41.703 30.7767 44.2963 29.4629 45.6897 27.8489C46.5976 26.8041 46.8739 25.8529 46.7831 24.9328C46.6963 23.9309 46.2108 22.8861 45.6503 21.779C45.0897 20.6718 44.4424 19.3151 43.8779 18.0715C43.5385 17.3191 43.2108 16.5901 42.9227 15.9157C41.924 17.0345 40.1833 18.0053 37.8978 18.7655L37.8939 18.7694Z" fill="#BCC6FF"/>
</svg>
