<svg width="42" height="40" viewBox="0 0 42 40" fill="none" xmlns="http://www.w3.org/2000/svg">
<path d="M22.8326 33.8735H30.1765C30.7664 33.2935 31.4133 32.6903 32.0703 32.0772C33.4479 30.7879 34.8858 29.4424 36.364 27.7587C38.0533 25.8332 38.2343 25.167 38.7471 23.2812C38.8443 22.9266 38.9516 22.5289 39.0924 22.0351L39.9706 18.9827L39.9806 18.9495C40.4499 17.5907 40.4867 16.6926 40.2923 16.1755C40.232 16.0165 40.1549 15.9104 40.0644 15.8541C39.994 15.8077 39.9002 15.7911 39.803 15.801C39.575 15.8242 39.3169 15.9667 39.0823 16.2219L36.4712 22.3599C36.4478 22.4162 36.4142 22.4692 36.3774 22.5156C36.2232 22.7907 36.0154 23.0592 35.7472 23.3144L31.1217 28.415C30.8703 28.6933 30.4379 28.7165 30.1597 28.468C29.8782 28.2194 29.8547 27.7919 30.1061 27.5168L34.735 22.4162C34.7551 22.393 34.7752 22.3698 34.7987 22.3499C35.278 21.8992 35.4288 21.412 35.345 21.0574C35.3182 20.948 35.2713 20.8552 35.2042 20.7922C35.1405 20.7359 35.0567 20.6961 34.9528 20.6862C34.5406 20.6431 33.9339 20.9447 33.1931 21.8097C33.173 21.8329 33.1496 21.8561 33.1261 21.8793L31.3329 23.4436L31.3228 23.4536C29.3821 25.2698 28.5475 25.7006 27.0257 26.4861C26.7073 26.6518 26.3587 26.8308 25.9263 27.0628C25.7554 27.1556 25.5878 27.2682 25.4236 27.3909C25.2493 27.5234 25.0817 27.6593 24.9241 27.7919C24.1197 28.4614 23.6974 29.0049 23.456 29.6048C23.2046 30.2278 23.1141 30.9868 22.9901 32.0275C22.9398 32.4484 22.903 32.8626 22.8728 33.2769C22.8527 33.4824 22.8426 33.6813 22.8326 33.8735ZM29.6603 19.102V19.8643C29.6603 20.0598 29.4994 20.2189 29.2983 20.2189H12.9379C12.7402 20.2189 12.5793 20.0598 12.5793 19.8643V10.7734C12.1771 10.9258 11.8017 10.9291 11.4866 10.8264C11.2419 10.7435 11.0374 10.5977 10.8833 10.4088C10.7324 10.2199 10.6352 9.98788 10.6051 9.736C10.5615 9.34492 10.6788 8.8975 11.0173 8.48323C11.0341 8.46334 11.0542 8.44345 11.0777 8.42688L20.8919 0.843945C21.0192 0.727947 21.217 0.718004 21.3578 0.827374L31.1988 8.39043C31.2122 8.40368 31.2289 8.41363 31.2424 8.4302C31.6982 8.91407 31.8122 9.45429 31.7016 9.90834C31.6479 10.1337 31.5373 10.3359 31.3898 10.5016C31.239 10.6673 31.0479 10.7966 30.8334 10.8761C30.4882 10.9987 30.0793 10.9954 29.6636 10.7999V19.102H29.6603ZM11.5536 8.95716C11.3626 9.20241 11.2955 9.45098 11.319 9.65977C11.3324 9.77909 11.376 9.88514 11.443 9.968C11.5101 10.0509 11.6006 10.1138 11.7112 10.1503C11.8989 10.2132 12.1402 10.1967 12.4184 10.0674L20.9857 3.62458C21.1198 3.52515 21.2974 3.52846 21.4248 3.62789L29.7474 10.0243C29.7508 10.0277 29.7541 10.031 29.7575 10.0343C30.0625 10.253 30.3541 10.2862 30.582 10.2066C30.6859 10.1702 30.7798 10.1072 30.8502 10.0277C30.9206 9.94811 30.9742 9.852 31.001 9.74594C31.058 9.51063 30.991 9.2223 30.7329 8.94059L21.1365 1.5565L11.5536 8.95716ZM15.6898 13.5938H20.2818C20.4628 13.5938 20.607 13.733 20.607 13.9086V17.4615C20.607 17.6338 20.4628 17.7763 20.2818 17.7763H15.6898C15.5122 17.7763 15.3647 17.6338 15.3647 17.4615V13.9086C15.3647 13.733 15.5088 13.5938 15.6898 13.5938ZM22.2494 13.2789H26.5632C26.7576 13.2789 26.9118 13.438 26.9118 13.6368V19.5096H28.9396V10.3756C28.9396 10.3524 28.943 10.3292 28.9463 10.306L21.2036 4.35371L13.2865 10.3094C13.2932 10.3392 13.2999 10.369 13.2999 10.4022V19.5096H21.9008V13.6368C21.9008 13.4413 22.055 13.2789 22.2494 13.2789ZM26.2112 13.9948H22.5979V19.503H26.2112V13.9948ZM19.9567 15.9999H18.2506V17.1466H19.9567V15.9999ZM17.6171 15.9999H16.0149V17.1466H17.6171V15.9999ZM16.0149 15.3702H17.6171V14.2235H16.0149V15.3702ZM18.2506 15.3702H19.9567V14.2235H18.2506V15.3702ZM21.0695 6.93217C21.6795 6.93217 22.1756 7.42267 22.1756 8.02586C22.1756 8.62905 21.6795 9.11956 21.0695 9.11956C20.4595 9.11956 19.9634 8.62905 19.9634 8.02586C19.9634 7.42267 20.4595 6.93217 21.0695 6.93217ZM19.5008 33.8735H12.1536C11.5637 33.2935 10.9168 32.6903 10.2598 32.0772C8.88221 30.7879 7.44427 29.4424 5.96611 27.7587C4.27678 25.8332 4.09578 25.167 3.58295 23.2812C3.48574 22.9266 3.37848 22.5289 3.23771 22.0351L2.35952 18.9827L2.34947 18.9495C1.88021 17.5907 1.84334 16.6926 2.03775 16.1755C2.09808 16.0165 2.17517 15.9104 2.26567 15.8541C2.33606 15.8077 2.42991 15.7911 2.52712 15.801C2.75504 15.8242 3.01313 15.9667 3.24776 16.2219L5.8555 22.3632C5.87896 22.4195 5.91248 22.4726 5.94935 22.519C6.10353 22.794 6.31135 23.0625 6.57949 23.3177L11.205 28.4183C11.4564 28.6967 11.8888 28.7199 12.167 28.4713C12.4486 28.2227 12.472 27.7952 12.2206 27.5201L7.59845 22.4162C7.57834 22.393 7.55823 22.3698 7.53477 22.3499C7.05546 21.8992 6.90462 21.412 6.98842 21.0574C7.01523 20.948 7.06216 20.8552 7.1292 20.7922C7.19288 20.7359 7.27668 20.6961 7.38058 20.6862C7.79286 20.6431 8.4029 20.9447 9.1403 21.8097C9.16041 21.8329 9.18388 21.8561 9.20734 21.8793L11.0006 23.4436L11.0106 23.4536C12.9513 25.2698 13.786 25.7006 15.3077 26.4861C15.6261 26.6518 15.9747 26.8308 16.4071 27.0628C16.578 27.1556 16.7456 27.2682 16.9099 27.3909C17.0842 27.5234 17.2518 27.6593 17.4093 27.7919C18.2137 28.4614 18.6361 29.0049 18.8774 29.6048C19.1288 30.2278 19.2193 30.9868 19.3433 32.0275C19.3936 32.4484 19.4305 32.8626 19.4606 33.2769C19.4807 33.4824 19.4908 33.6813 19.5008 33.8735ZM10.4442 34.1055C10.3403 34.2248 10.2766 34.3806 10.2766 34.5496V38.573C10.2766 38.9476 10.5849 39.2491 10.9604 39.2491H20.2047C20.5835 39.2491 20.8885 38.9476 20.8885 38.573V34.5098C20.8885 34.079 20.8617 33.615 20.8315 33.1841C20.8014 32.7433 20.7611 32.3059 20.7109 31.8717C20.5768 30.7349 20.4762 29.903 20.1545 29.1043C19.8226 28.2857 19.2897 27.5798 18.3009 26.7545C18.1199 26.6021 17.9355 26.4496 17.7411 26.3071C17.5367 26.1547 17.3154 26.0088 17.0674 25.8729C16.6652 25.6575 16.2898 25.462 15.9479 25.283C14.5401 24.5539 13.7692 24.1562 11.9558 22.4593C11.9424 22.446 11.9257 22.4328 11.9123 22.4228L10.1593 20.9016C9.09002 19.6654 8.04425 19.2544 7.24316 19.3406H7.23981C6.84764 19.3804 6.51246 19.5328 6.24431 19.7648L4.47789 15.6022H4.47454C4.44772 15.5425 4.4142 15.4862 4.37063 15.4331C3.88126 14.8532 3.26117 14.5151 2.66789 14.4555C2.26232 14.4157 1.87016 14.5019 1.52827 14.7206C1.20314 14.9294 0.934991 15.2542 0.767399 15.7016C0.472437 16.4804 0.479141 17.6901 1.05566 19.3638L1.92714 22.3963C2.05451 22.8338 2.16512 23.2547 2.26902 23.6259C2.83884 25.7304 3.03995 26.4761 4.94044 28.637C6.44542 30.3505 7.91688 31.7292 9.33136 33.0516C9.70006 33.4062 10.0688 33.7509 10.4442 34.1055ZM11.7514 35.229C11.8419 35.2489 11.9357 35.2489 12.0296 35.229H19.5176V37.9003H11.6441V35.229H11.7514ZM31.8893 34.1055C31.9932 34.2248 32.0569 34.3806 32.0569 34.5496V38.573C32.0569 38.9476 31.7518 39.2491 31.3731 39.2491H22.132C21.7533 39.2491 21.4483 38.9476 21.4483 38.573V34.5098C21.4483 34.4866 21.4483 34.4601 21.4516 34.4369C21.4617 34.0027 21.4784 33.5818 21.5052 33.1841C21.5354 32.7433 21.5756 32.3059 21.6259 31.8717C21.76 30.7349 21.8605 29.903 22.1823 29.1043C22.5142 28.2857 23.0471 27.5798 24.0359 26.7545C24.2169 26.6021 24.4012 26.4496 24.5956 26.3071C24.8001 26.1547 25.0213 26.0088 25.2694 25.8729C25.6716 25.6575 26.047 25.462 26.3889 25.283C27.7967 24.5539 28.5676 24.1562 30.3809 22.4593C30.3943 22.446 30.4111 22.4328 30.4245 22.4228L32.1742 20.895C33.2434 19.6588 34.2892 19.2478 35.0903 19.334H35.0936C35.4858 19.3738 35.821 19.5262 36.0891 19.7582L37.8555 15.5955H37.8589C37.8857 15.5359 37.9192 15.4795 37.9628 15.4265C38.4522 14.8465 39.0723 14.5085 39.6655 14.4488C40.0711 14.4091 40.4633 14.4952 40.8052 14.714C41.1303 14.9228 41.3984 15.2476 41.566 15.695C41.861 16.4738 41.8543 17.6835 41.2778 19.3572L40.4063 22.3897C40.2789 22.8272 40.1683 23.2481 40.0644 23.6193C39.4946 25.7238 39.2935 26.4695 37.393 28.6304C35.888 30.3438 34.4165 31.7225 33.0021 33.0449C32.6334 33.4062 32.2647 33.7509 31.8893 34.1055ZM30.582 35.229C30.4915 35.2489 30.3977 35.2489 30.3038 35.229H22.8158V37.9003H30.6893V35.229H30.582Z" fill="#BCC6FF"/>
</svg>
