<svg width="39" height="38" viewBox="0 0 39 38" fill="none" xmlns="http://www.w3.org/2000/svg">
<path d="M30.2135 0.230176C30.4794 -0.0598283 30.9247 -0.0785383 31.2123 0.189638C31.4999 0.457814 31.5185 0.906853 31.2525 1.19686L25.4634 7.51459L25.4541 7.52706C24.7459 8.39084 24.2604 9.18913 24.044 9.91882C23.8522 10.5643 23.88 11.1506 24.1646 11.662C24.3161 11.9364 24.2666 12.2732 24.0656 12.4946L21.3164 15.4944C21.0473 15.1981 20.834 14.958 20.6917 14.8021C20.6268 14.7148 20.5525 14.6306 20.4752 14.5495L20.469 14.5558C20.4319 14.5152 20.3917 14.4778 20.3515 14.4404L22.7018 11.874C22.4266 11.1318 22.4297 10.3429 22.6833 9.50408C22.9554 8.59353 23.5337 7.62373 24.3656 6.61339C24.3841 6.58845 24.3996 6.5635 24.4212 6.54167L30.2073 0.223939L30.2135 0.230176ZM17.7786 17.1533C17.5188 16.8602 17.5436 16.4081 17.8342 16.1461C18.1249 15.8842 18.5734 15.9091 18.8331 16.2022C21.7431 19.489 30.7392 29.215 33.2317 32.851C36.519 37.5441 31.4288 39.0222 29.7403 37.3133C25.5222 33.2003 16.5663 22.7133 12.6296 18.2666C11.2132 18.8715 9.83709 18.9651 8.45475 18.5659C6.96726 18.1387 5.5107 17.1377 4.0325 15.6004L4.01394 15.5817C2.88828 14.3843 2.00692 13.2024 1.36987 12.033C0.717353 10.8294 0.318423 9.63817 0.176169 8.45632C0.024637 7.18405 0.142151 5.99908 0.482325 4.9482C0.881255 3.71335 1.58943 2.66871 2.51718 1.89224C3.45111 1.11266 4.59842 0.607494 5.87871 0.451577C6.94252 0.323726 8.1022 0.432867 9.30209 0.828895C10.9627 1.3746 12.8986 2.73107 14.5036 4.4711C15.6881 5.75273 16.7024 7.25265 17.3054 8.79622C17.9332 10.4053 18.1249 12.0705 17.6209 13.6296C17.324 14.5527 16.7859 15.4195 15.9509 16.2022C15.6633 16.4704 15.218 16.4517 14.9521 16.1648C14.6861 15.8748 14.7047 15.4258 14.9892 15.1576C15.6355 14.5495 16.0499 13.8853 16.2756 13.1837C16.6653 11.9769 16.5014 10.6392 15.988 9.32322C15.4499 7.94492 14.5377 6.5978 13.4677 5.4409C12.0204 3.8755 10.3041 2.66247 8.85677 2.18537C7.86408 1.86106 6.91469 1.76751 6.0457 1.87353C5.03755 1.99827 4.13455 2.38806 3.414 2.99613C2.69036 3.60421 2.1368 4.42433 1.81828 5.40036C1.54305 6.25167 1.44718 7.23082 1.57397 8.28793C1.69458 9.2858 2.03784 10.3055 2.60068 11.347C3.19134 12.4166 4.00157 13.4987 5.04374 14.6057L5.04992 14.615C6.35495 15.9715 7.60741 16.8446 8.84749 17.2001C10.0195 17.5369 11.2132 17.4059 12.4595 16.7791C12.744 16.6139 13.112 16.67 13.3378 16.9257C17.1786 21.2633 26.521 32.1806 30.6588 36.225C32.4555 36.9641 33.4513 36.0535 32.5916 34.4476C31.2525 31.9404 19.7485 19.3861 17.7786 17.1533ZM14.049 23.4243L5.03137 33.2626C5.01281 33.2813 4.99735 33.3 4.9757 33.3187C3.6583 34.7532 5.99004 36.8425 7.43732 35.4454L16.1952 25.8878L17.1353 26.9636L8.44547 36.4464C8.42691 36.4683 8.40836 36.487 8.38362 36.5088C7.86408 36.9485 7.34145 37.2354 6.81264 37.3539C6.26836 37.4786 5.73336 37.4225 5.22001 37.1792C5.13342 37.1449 5.05301 37.1013 4.98189 37.0358L3.73562 35.8727C3.71706 35.8539 3.69851 35.8384 3.67995 35.8165C3.19752 35.2552 2.96868 34.6565 3.03053 34.0235C3.08929 33.4248 3.40472 32.8416 4.00157 32.2803L13.1058 22.3454L14.049 23.4243ZM23.4997 17.9173L24.0347 17.3342C24.3006 17.0442 24.749 17.0255 25.0335 17.2937C25.3181 17.5618 25.3397 18.0109 25.0737 18.3009L24.4553 18.9744L23.4997 17.9173ZM32.4122 2.31634C32.6782 2.02633 33.1235 2.00762 33.4111 2.2758C33.6987 2.54398 33.7172 2.99301 33.4513 3.28302L28.3765 8.82429C28.1106 9.11429 27.6652 9.133 27.3776 8.86482C27.09 8.59665 27.0715 8.14761 27.3374 7.8576L32.4122 2.31634ZM34.6079 4.36508C34.8738 4.07507 35.3191 4.05636 35.6067 4.32454C35.8943 4.59272 35.9129 5.04176 35.6469 5.33176L30.5753 10.8699C30.3093 11.1599 29.864 11.1786 29.5764 10.9104C29.2888 10.6423 29.2702 10.1932 29.5362 9.90323L34.6079 4.36508ZM36.8839 6.4949C37.1499 6.20489 37.5952 6.18618 37.8828 6.45436C38.1704 6.72253 38.189 7.17469 37.923 7.46158L32.1339 13.7824C32.1122 13.8043 32.0906 13.823 32.0689 13.8448C30.7515 15.1233 29.4929 15.8624 28.2899 16.0713C26.9849 16.2989 25.7881 15.9247 24.6903 14.958C24.3965 14.6992 24.3687 14.2471 24.6222 13.9539C24.8789 13.6577 25.3273 13.6296 25.618 13.8853C26.3757 14.5527 27.1859 14.8146 28.0425 14.6618C28.9641 14.5028 29.9784 13.8884 31.0855 12.8126L31.0917 12.8064L36.8778 6.49178L36.8839 6.4949Z" fill="#3653FE"/>
</svg>
