<svg width="42" height="34" viewBox="0 0 42 34" fill="none" xmlns="http://www.w3.org/2000/svg">
<path fill-rule="evenodd" clip-rule="evenodd" d="M4.12209 33.7438V19.422C3.34444 19.7146 2.61633 19.7212 2.01123 19.5193C1.53912 19.3634 1.14016 19.0831 0.847584 18.7225C0.55501 18.3611 0.368826 17.9214 0.312639 17.4367C0.226196 16.6847 0.455601 15.8355 1.11024 15.0376C1.14348 14.9985 1.18005 14.9595 1.22328 14.9269L20.1924 0.429669C20.4384 0.208643 20.8174 0.185531 21.0904 0.393862L40.1027 14.8654C40.1327 14.8879 40.1593 14.911 40.1855 14.9403C41.0666 15.868 41.2863 16.8963 41.0736 17.7651C40.9672 18.1948 40.7577 18.5792 40.4685 18.8982C40.1795 19.2169 39.8105 19.4643 39.3913 19.6108C38.7263 19.8452 37.9354 19.8383 37.1341 19.4676V33.7044H35.2726V18.6668C35.2726 18.338 22.2304 8.2447 20.7912 7.14803C19.2651 8.28376 5.98426 18.296 5.98426 18.7189V33.75L4.12209 33.7438ZM13.2118 25.6274C13.9945 25.6274 14.7695 25.7686 15.5361 26.0512L15.1402 28.0245L14.7941 28.1696C14.4476 27.9597 14.1059 27.7947 13.7681 27.6736C13.4303 27.5525 13.1583 27.4919 12.9522 27.4919C12.7627 27.4919 12.6121 27.5281 12.5007 27.601C12.3896 27.6736 12.3338 27.7706 12.3338 27.8913C12.3338 28.0446 12.4182 28.1758 12.5875 28.2849C12.7564 28.3939 13.0386 28.5368 13.4343 28.7142C13.8957 28.9161 14.2747 29.1036 14.5716 29.2774C14.8685 29.4506 15.1282 29.6888 15.3506 29.9912C15.573 30.2936 15.6841 30.667 15.6841 31.111C15.6841 31.6032 15.5461 32.0492 15.2702 32.4483C14.9939 32.8477 14.6006 33.1644 14.0896 33.3984C13.5786 33.6328 12.9851 33.7497 12.3092 33.7497C11.4684 33.7497 10.5863 33.596 9.66338 33.2894L10.0221 31.1833L10.2691 31.0381C10.6485 31.3207 11.0541 31.5449 11.487 31.71C11.9199 31.875 12.2803 31.9583 12.5688 31.9583C12.7992 31.9583 12.9665 31.9199 13.0695 31.8431C13.1726 31.7666 13.2241 31.6716 13.2241 31.5586C13.2241 31.389 13.1354 31.2461 12.9582 31.1293C12.781 31.0121 12.4947 30.8685 12.0987 30.6992C11.6456 30.5056 11.2729 30.3223 10.98 30.1488C10.6874 29.9753 10.4337 29.737 10.2196 29.4346C10.0055 29.1322 9.8981 28.7588 9.8981 28.3152C9.8981 27.8064 10.0381 27.3487 10.3183 26.9411C10.5986 26.5336 10.9903 26.213 11.493 25.9789C11.9957 25.7442 12.5688 25.6274 13.2118 25.6274ZM19.1787 27.7461C19.9371 27.7461 20.5222 27.8972 20.9345 28.1999C21.3464 28.5027 21.5525 28.9366 21.5525 29.5013C21.5525 29.6625 21.5359 30.0902 21.503 30.7842C21.4701 31.3978 21.4538 31.7406 21.4538 31.8132C21.4538 31.9017 21.4681 31.9668 21.497 32.0069C21.5259 32.0472 21.5692 32.0677 21.627 32.0677C21.6849 32.0677 21.755 32.0554 21.8371 32.0313L21.9854 32.1524L21.7753 33.363C21.4704 33.5729 21.0871 33.694 20.6256 33.7262C20.3866 33.71 20.1744 33.6292 19.9889 33.4841C19.8037 33.3385 19.6614 33.1331 19.5624 32.8665H19.4759C19.1132 33.2786 18.7013 33.5687 18.2398 33.7383C17.6131 33.7305 17.1124 33.5586 16.7374 33.224C16.3627 32.8893 16.1751 32.431 16.1751 31.85C16.1751 30.9541 16.6489 30.4418 17.5968 30.3125L19.3526 30.0824V29.9375C19.3526 29.7272 19.3094 29.5782 19.2226 29.4896C19.1361 29.4008 18.9855 29.3562 18.7714 29.3562C18.3096 29.3562 17.7122 29.5502 16.9787 29.9375L16.8301 29.8405L16.5705 28.3516C16.9495 28.1579 17.3677 28.0088 17.8252 27.9037C18.2827 27.7982 18.7335 27.7461 19.1787 27.7461ZM18.6471 31.208C18.532 31.224 18.4473 31.2663 18.3937 31.335C18.3402 31.4037 18.3133 31.5065 18.3133 31.6439C18.3133 31.9668 18.4655 32.1279 18.7708 32.1279C18.9686 32.1279 19.1624 32.0635 19.3519 31.9339V31.1114L18.6471 31.208ZM25.1954 31.0625L25.2942 33.6048H22.8831L22.9945 31.305L22.908 25.2644L25.3061 25.1072L25.1954 31.0625ZM31.4462 31.2321L28.3802 31.2565C28.4546 31.5388 28.5949 31.7468 28.8007 31.8796C29.0069 32.0127 29.2911 32.0791 29.6535 32.0791C30.0575 32.0791 30.6466 31.9782 31.4213 31.7764L31.5945 31.8978L31.2238 33.4954C30.5728 33.665 29.967 33.7497 29.4065 33.7497C28.3845 33.7497 27.5865 33.4834 27.0144 32.9505C26.4412 32.418 26.1549 31.6836 26.1549 30.7474C26.1549 29.819 26.4266 29.0889 26.9711 28.5567C27.5151 28.0238 28.2608 27.7575 29.2087 27.7575C30.0242 27.7575 30.6569 27.9675 31.1064 28.3874C31.5556 28.807 31.78 29.392 31.78 30.1426C31.78 30.3848 31.7554 30.6472 31.7055 30.9294L31.4462 31.2321ZM29.7403 29.9004C29.7403 29.473 29.5544 29.2592 29.1837 29.2592C28.7306 29.2592 28.4546 29.5456 28.3556 30.1185L29.7157 30.0703L29.7403 29.9004ZM21.1639 13.1656V17.2511H24.9075V17.2401C24.9075 16.1134 24.4367 15.0894 23.6787 14.3465C23.0171 13.6994 22.138 13.2655 21.1639 13.1656ZM21.1639 18.1144V20.6508H24.9075V18.1144H21.1639ZM20.2825 20.6482V18.1144H16.5382V20.6508H20.2822V20.6482H20.2825ZM20.2825 17.2515V13.1656C19.306 13.2678 18.4293 13.6994 17.768 14.3465C17.01 15.0894 16.5385 16.1134 16.5385 17.2401V17.2511H20.2825V17.2515ZM20.723 12.2801C22.1171 12.2801 23.3834 12.8387 24.2994 13.7359C25.2184 14.6353 25.7865 15.8752 25.7865 17.2378V21.5092H15.6572V17.2378C15.6572 15.8729 16.228 14.633 17.144 13.7359C18.0626 12.8384 19.329 12.2801 20.723 12.2801ZM31.4655 1.40622L37.1737 1.63441V9.18219L31.4655 5.49408V1.40622Z" fill="#BCC6FF"/>
</svg>
