<svg width="44" height="34" viewBox="0 0 44 34" fill="none" xmlns="http://www.w3.org/2000/svg">
<path fill-rule="evenodd" clip-rule="evenodd" d="M0.329136 29.72C0.457267 29.9473 0.628911 30.1466 0.834058 30.3063C1.03921 30.4659 1.27375 30.5827 1.52402 30.6498C1.77429 30.7169 2.03526 30.7329 2.29174 30.697C2.54821 30.6611 2.79504 30.574 3.01784 30.4407L11.4798 25.0966V25.075L9.55062 21.9904V21.9652L1.08868 27.0101C0.640254 27.2764 0.313861 27.7107 0.18034 28.2187C0.0468188 28.7268 0.116943 29.2675 0.375493 29.7236L0.329136 29.72ZM12.5103 0.131375C14.2185 0.133372 15.8983 0.573526 17.3922 1.4106C18.8862 2.24768 20.1454 3.45428 21.0519 4.91736C21.9585 6.38045 22.4826 8.05214 22.5754 9.77582C22.6681 11.4995 22.3263 13.2188 21.5821 14.7725L39.5044 4.09526L40.888 6.42314V6.44837L29.666 13.5761C31.7425 13.8126 33.6947 14.6958 35.2525 16.1032C36.8102 17.5107 37.8963 19.3729 38.3602 21.4318C38.8242 23.4907 38.6431 25.6445 37.842 27.5948C37.0409 29.5451 35.6595 31.1954 33.8891 32.317C32.1187 33.4387 30.0469 33.9763 27.9608 33.8553C25.8746 33.7344 23.8773 32.9608 22.2455 31.6418C20.6137 30.3228 19.4282 28.5237 18.8531 26.4936C18.2781 24.4635 18.342 22.3029 19.036 20.3111L12.2179 24.6354V24.6138L10.2852 21.5255L11.9861 20.5129C10.6618 20.4782 9.35728 20.1801 8.14695 19.6359C6.93662 19.0916 5.84423 18.3117 4.93214 17.3408C3.09009 15.38 2.09429 12.7601 2.1638 10.0573C2.23332 7.35454 3.36245 4.79038 5.3028 2.9289C7.24315 1.06743 9.83578 0.0611299 12.5103 0.131375ZM41.6618 5.97991L42.9348 5.17632C44.9888 3.87905 43.3271 1.81783 41.6047 2.84483L40.2711 3.64121L41.6547 5.9691L41.6618 5.97991ZM26.4567 25.2696L28.2396 20.1418H25.6793V18.34H30.126L30.5611 19.0607L28.4429 25.2696H26.4567ZM28.1184 15.9869C29.2603 15.9869 30.3765 16.3293 31.3257 16.9708C32.2749 17.6123 33.0144 18.5239 33.4506 19.5904C33.8867 20.6568 33.9999 21.83 33.7759 22.9615C33.5518 24.093 33.0005 25.1319 32.1918 25.9466C31.3831 26.7613 30.3534 27.3152 29.233 27.5381C28.1127 27.761 26.952 27.643 25.8981 27.1989C24.8441 26.7549 23.9442 26.0047 23.3124 25.0436C22.6806 24.0824 22.3452 22.9533 22.3487 21.7994C22.3525 20.2559 22.9622 18.7769 24.0439 17.6872C25.1256 16.5975 26.591 15.986 28.1184 15.9869ZM11.519 11.9437C11.287 11.9451 11.0554 11.9246 10.8272 11.8825C10.6097 11.8491 10.4004 11.7745 10.2103 11.6627C10.0245 11.5447 9.87409 11.3778 9.77527 11.1798C9.65812 10.9214 9.60313 10.6386 9.61481 10.3546V9.42128C9.62092 9.26914 9.64854 9.11867 9.69682 8.97444C9.73881 8.82601 9.81176 8.6884 9.91078 8.57084C10.015 8.44779 10.1591 8.36608 10.3173 8.34022C10.1591 8.26457 10.0237 8.14764 9.92504 8.00149C9.84736 7.87779 9.80084 7.73674 9.78954 7.59068C9.78954 7.44294 9.77171 7.28438 9.77171 7.12222V6.34026C9.75614 6.03841 9.8388 5.73972 10.0071 5.48983C10.1638 5.27783 10.38 5.11837 10.6275 5.03218C10.8894 4.93721 11.1659 4.88963 11.4441 4.89164H12.7564C13.037 4.88901 13.3159 4.93659 13.5801 5.03218C13.8261 5.11959 14.0408 5.27888 14.197 5.48983C14.3653 5.73972 14.4479 6.03841 14.4324 6.34026V7.12222C14.4305 7.21027 14.4234 7.29812 14.411 7.38528C14.3992 7.50751 14.3753 7.62824 14.3397 7.74564C14.3056 7.86064 14.2486 7.96735 14.1721 8.05914C14.0964 8.14743 13.9909 8.20398 13.8761 8.2177C13.9703 8.23448 14.0602 8.27025 14.1405 8.32287C14.2207 8.37549 14.2897 8.44389 14.3432 8.524C14.4368 8.66927 14.4999 8.83239 14.5287 9.00327C14.5546 9.14477 14.5689 9.2882 14.5714 9.43209V10.3582C14.5954 10.7172 14.5081 11.0749 14.3218 11.3816C14.1595 11.6052 13.9269 11.7665 13.6621 11.8392C13.3766 11.9193 13.0812 11.9581 12.7849 11.9546L11.519 11.9437ZM11.8364 10.4122H12.3178C12.521 10.4122 12.6423 10.3726 12.6744 10.2969C12.7241 10.2004 12.7475 10.0922 12.7421 9.98343V9.5438C12.7462 9.42951 12.708 9.31778 12.6351 9.23029C12.596 9.18726 12.5478 9.15361 12.4941 9.13179C12.4405 9.10997 12.3826 9.10053 12.3249 9.10417H11.8364C11.7696 9.10291 11.7032 9.1139 11.6403 9.1366C11.5892 9.15625 11.5439 9.18845 11.5083 9.23029C11.4726 9.27102 11.4459 9.31892 11.4299 9.37083C11.4112 9.42655 11.4015 9.48496 11.4013 9.5438V9.98343C11.3947 10.0429 11.3998 10.1032 11.4163 10.1607C11.4329 10.2182 11.4605 10.2719 11.4976 10.3186C11.6 10.3953 11.7278 10.4289 11.8542 10.4122H11.8364ZM11.8364 7.57267H12.3178C12.3994 7.57894 12.4811 7.56143 12.5531 7.52222C12.5776 7.50172 12.5977 7.47651 12.6124 7.44805C12.6271 7.41958 12.6361 7.38845 12.6387 7.35645C12.6545 7.26486 12.6617 7.17195 12.6601 7.07898V6.7871C12.6601 6.60692 12.6244 6.50242 12.5531 6.46999C12.4789 6.43759 12.3986 6.42161 12.3178 6.42314H11.8364C11.7492 6.41853 11.6622 6.43586 11.5832 6.47359C11.5226 6.50962 11.494 6.61413 11.494 6.7871V7.07898C11.4748 7.22207 11.5024 7.36757 11.5725 7.49339C11.6091 7.52361 11.6513 7.54619 11.6966 7.5598C11.7419 7.57341 11.7894 7.57778 11.8364 7.57267ZM12.0753 2.58538C13.2176 2.58324 14.3348 2.92359 15.2856 3.56335C16.2365 4.20311 16.9781 5.11352 17.4167 6.17938C17.8553 7.24523 17.9711 8.41862 17.7496 9.55103C17.528 10.6835 16.979 11.724 16.1721 12.541C15.3651 13.358 14.3364 13.9147 13.2162 14.1407C12.096 14.3667 10.9347 14.2518 9.87915 13.8105C8.82361 13.3693 7.92132 12.6215 7.28647 11.6619C6.65163 10.7022 6.31276 9.57384 6.31276 8.4195C6.31276 6.87282 6.92052 5.38943 8.00244 4.29543C9.08436 3.20142 10.5519 2.58633 12.0824 2.58538H12.0753Z" fill="#BCC6FF"/>
</svg>
