<svg width="39" height="40" viewBox="0 0 39 40" fill="none" xmlns="http://www.w3.org/2000/svg">
<path d="M23.2621 6.50733C23.1691 6.38322 23.1225 6.22807 23.1256 6.07293C23.0201 6.15671 22.9085 6.23428 22.7906 6.30875C21.9622 6.83002 20.8299 7.15582 19.5889 7.15582C18.348 7.15582 17.2125 6.83313 16.3873 6.30875C16.2074 6.19705 16.0429 6.07293 15.894 5.94261V6.90449C15.894 8.03082 16.8154 8.75999 17.9974 9.08889C18.4938 9.22851 19.0336 9.29678 19.5734 9.29678C20.1132 9.29678 20.653 9.22851 21.1494 9.08889C22.3376 8.75688 23.2683 8.02772 23.2683 6.9138V6.50733H23.2621ZM19.62 10.7489C20.8609 10.7489 21.9964 11.0716 22.8216 11.596C23.7151 12.1607 24.2673 12.9581 24.2673 13.8579C24.2673 13.9727 24.258 14.0844 24.2425 14.193V16.725C24.2425 18.3446 23.0077 19.3717 21.4317 19.8092C20.8547 19.9705 20.2311 20.0512 19.6044 20.0512C18.9809 20.0512 18.3542 19.9705 17.7772 19.8123C16.2074 19.3748 14.9788 18.3477 14.9788 16.7188V14.1682C14.9788 14.1403 14.9819 14.1155 14.985 14.0907C14.9757 14.0162 14.9726 13.9386 14.9726 13.861C14.9726 12.9612 15.5248 12.1607 16.4183 11.5991C17.2467 11.0716 18.379 10.7489 19.62 10.7489ZM23.2962 15.7755C23.1535 15.8996 22.9953 16.0144 22.8247 16.123C21.9964 16.6443 20.864 16.9701 19.6231 16.9701C18.3821 16.9701 17.2467 16.6474 16.4214 16.123C16.2415 16.0113 16.0771 15.8872 15.9282 15.7569V16.7188C15.9282 17.8451 16.8496 18.5742 18.0316 18.9031C18.5279 19.0428 19.0677 19.111 19.6075 19.111C20.1474 19.111 20.6872 19.0428 21.1835 18.9031C22.3717 18.5711 23.3025 17.842 23.3025 16.7281V15.7755H23.2962ZM22.3221 12.3934C21.6396 11.9621 20.6841 11.6953 19.6231 11.6953C18.559 11.6953 17.6065 11.9621 16.924 12.3934C16.3066 12.7844 15.9219 13.3025 15.9219 13.8579C15.9219 14.4133 16.3035 14.9315 16.924 15.3225C17.6065 15.7538 18.5621 16.0206 19.6231 16.0206C20.6872 16.0206 21.6396 15.7538 22.3221 15.3225C22.8464 14.9905 23.2001 14.5685 23.2962 14.1062V14.0193C23.2962 13.9665 23.3056 13.9138 23.3211 13.8641V13.8548C23.3211 13.3025 22.9395 12.7844 22.3221 12.3934ZM10.0554 6.12258C11.0481 6.12258 11.9695 6.32736 12.7234 6.67799C12.7606 6.64075 12.8041 6.60972 12.8506 6.5818L14.7989 5.45547C14.8454 5.42754 14.8951 5.40893 14.9447 5.39341V4.35396C14.9447 4.32604 14.9478 4.30122 14.9509 4.27639C14.9416 4.20192 14.9385 4.12435 14.9385 4.04678C14.9385 3.14696 15.4907 2.34643 16.3842 1.78482C17.2125 1.26044 18.3449 0.937744 19.5858 0.937744C20.8268 0.937744 21.9622 1.26044 22.7875 1.78482C23.6809 2.34953 24.2332 3.14696 24.2332 4.04678C24.2332 4.16159 24.2239 4.27329 24.2083 4.38189V5.51753L26.3304 6.68109C26.3738 6.70591 26.4141 6.73384 26.4513 6.76486C27.2735 6.2591 28.3872 5.94882 29.6064 5.94882C30.8474 5.94882 31.9828 6.27151 32.8081 6.79589C33.7016 7.36061 34.2538 8.15804 34.2538 9.05786C34.2538 9.17266 34.2445 9.28436 34.229 9.39296V11.0251C34.2786 11.0375 34.3282 11.0592 34.3779 11.084L37.7563 12.9364C37.8773 12.9954 37.9828 13.0884 38.0542 13.2126C38.1162 13.3212 38.1472 13.4422 38.1472 13.5601H38.1503V27.5818C38.1503 27.8455 38.0014 28.0782 37.7843 28.1961L19.9674 38.963C19.8619 39.0281 19.7441 39.0592 19.6293 39.0623C19.6169 39.0623 19.6044 39.0623 19.592 39.0623C19.4183 39.0623 19.257 38.9971 19.136 38.8916L1.08027 28.3265C0.853801 28.193 0.729707 27.951 0.739014 27.7028L0.953076 13.889C0.946872 13.7618 0.974793 13.6314 1.03994 13.5104C1.1113 13.3801 1.21988 13.2839 1.34397 13.225L5.21261 10.9909C5.27466 10.9537 5.34291 10.9289 5.40806 10.9134V9.5388C5.40806 9.51087 5.41116 9.48605 5.41427 9.46123C5.40496 9.38676 5.40186 9.30919 5.40186 9.23162C5.40186 8.3318 5.95408 7.53126 6.84755 6.96965C7.67899 6.44527 8.81445 6.12258 10.0554 6.12258ZM13.9675 7.53747C14.4328 8.02151 14.7027 8.60174 14.7027 9.23162C14.7027 9.34642 14.6934 9.45812 14.6779 9.56672V12.0986C14.6779 13.7183 13.4432 14.7454 11.8672 15.1829C11.2901 15.3442 10.6666 15.4249 10.0399 15.4249C9.41631 15.4249 8.78963 15.3442 8.21259 15.186C6.76379 14.7826 5.60971 13.8797 5.43598 12.4648L3.05027 13.8424L19.5796 23.1044L36.0376 13.5818L34.1607 12.5516C33.8846 13.8114 32.7802 14.6336 31.4151 15.0122C30.8381 15.1735 30.2145 15.2542 29.5878 15.2542C28.9612 15.2542 28.3376 15.1735 27.7605 15.0153C26.1907 14.5778 24.9622 13.5508 24.9622 11.9218V9.37124C24.9622 9.34332 24.9653 9.3185 24.9684 9.29367C24.9591 9.21921 24.956 9.14163 24.956 9.06406C24.956 8.59243 25.108 8.14563 25.381 7.74846L24.199 7.10307C24.1091 8.61726 22.9116 9.58534 21.3914 10.0073C20.8144 10.1687 20.1908 10.2493 19.5641 10.2493C18.9374 10.2493 18.3139 10.1687 17.7368 10.0104C16.1856 9.57913 14.9726 8.57382 14.9416 6.98206L13.9675 7.53747ZM13.7317 11.1461C13.589 11.2702 13.4308 11.385 13.2601 11.4936C12.4318 12.0149 11.2994 12.3407 10.0585 12.3407C8.81755 12.3407 7.68209 12.018 6.85686 11.4936C6.67692 11.3819 6.5125 11.2578 6.36359 11.1274V12.0893C6.36359 13.2157 7.28499 13.9448 8.46698 14.2737C8.96336 14.4133 9.50317 14.4816 10.043 14.4816C10.5828 14.4816 11.1226 14.4133 11.619 14.2737C12.8072 13.9417 13.7379 13.2126 13.7379 12.0986V11.1461H13.7317ZM12.7544 7.76708C12.0719 7.33579 11.1164 7.06894 10.0554 7.06894C8.99128 7.06894 8.03886 7.33579 7.35634 7.76708C6.73897 8.15804 6.35428 8.67621 6.35428 9.23162C6.35428 9.78702 6.73587 10.3052 7.35634 10.6962C8.03886 11.1274 8.99438 11.3943 10.0554 11.3943C11.1195 11.3943 12.0719 11.1274 12.7544 10.6962C13.2787 10.3642 13.6324 9.94217 13.7286 9.47984V9.39296C13.7286 9.34022 13.7379 9.28747 13.7534 9.23782V9.22851C13.7565 8.67621 13.3749 8.15804 12.7544 7.76708ZM33.2796 10.9723C33.1369 11.0964 32.9787 11.2112 32.8081 11.3198C31.9797 11.8411 30.8474 12.1669 29.6064 12.1669C28.3655 12.1669 27.23 11.8442 26.4048 11.3198C26.2249 11.2081 26.0604 11.084 25.9115 10.9537V11.9156C25.9115 13.0419 26.8329 13.7711 28.0149 14.1C28.5113 14.2396 29.0511 14.3079 29.5909 14.3079C30.1307 14.3079 30.6706 14.2396 31.1669 14.1C32.3551 13.768 33.2858 13.0388 33.2858 11.9249V10.9723H33.2796ZM32.3055 7.59332C31.623 7.16203 30.6674 6.89518 29.6064 6.89518C28.5423 6.89518 27.5899 7.16203 26.9074 7.59332C26.29 7.98428 25.9053 8.50245 25.9053 9.05786C25.9053 9.61327 26.2869 10.1314 26.9074 10.5224C27.5899 10.9537 28.5454 11.2205 29.6064 11.2205C30.6706 11.2205 31.623 10.9537 32.3055 10.5224C32.8298 10.1904 33.1835 9.76841 33.2796 9.30608V9.22231C33.2796 9.16956 33.2889 9.11681 33.3045 9.06717V9.05786C33.3045 8.50245 32.9229 7.98118 32.3055 7.59332ZM23.2621 4.29811V4.21123C23.2621 4.15848 23.2714 4.10574 23.2869 4.05609V4.04678C23.2869 3.49138 22.9054 2.9732 22.2849 2.58225C21.6024 2.15095 20.6468 1.88411 19.5858 1.88411C18.5217 1.88411 17.5693 2.15095 16.8868 2.58225C16.2694 2.9732 15.8847 3.49138 15.8847 4.04678C15.8847 4.60219 16.2663 5.12036 16.8868 5.51132C17.5693 5.94261 18.5248 6.20946 19.5858 6.20946C20.6499 6.20946 21.6024 5.94261 22.2849 5.51132C22.8123 5.18242 23.1659 4.75733 23.2621 4.29811ZM20.2808 24.299V37.1509L36.7543 27.1939V14.7671L20.2808 24.299ZM18.8909 37.1478V24.3052L2.32122 15.0246L2.13197 27.3335L18.8909 37.1478Z" fill="#BCC6FF"/>
</svg>
