<svg width="58" height="26" viewBox="0 0 58 26" fill="none" xmlns="http://www.w3.org/2000/svg">
<path fill-rule="evenodd" clip-rule="evenodd" d="M43.9703 0.993336H50.0535C51.9252 0.993336 53.0015 2.57065 53.4554 4.37595L54.5316 8.75428L55.1587 7.57246C58.4108 7.38634 58.7009 9.26609 55.2616 10.8853L55.8325 11.7228C58.0973 14.0492 57.8821 16.3431 57.5311 22.0568V23.9179C57.5311 24.0566 57.5036 24.1939 57.4503 24.3221C57.3969 24.4502 57.3186 24.5667 57.22 24.6647C57.1214 24.7628 57.0043 24.8406 56.8754 24.8937C56.7465 24.9468 56.6084 24.9741 56.4689 24.9741H51.9252C51.7857 24.9741 51.6476 24.9468 51.5187 24.8937C51.3899 24.8406 51.2728 24.7628 51.1741 24.6647C51.0755 24.5667 50.9973 24.4502 50.9439 24.3221C50.8905 24.1939 50.863 24.0566 50.863 23.9179V23.099H49.1784V22.4243V22.1312C49.2627 20.7726 49.3375 19.5768 49.375 18.5066L52.0563 18.4834C52.3738 18.4811 52.6852 18.3961 52.9594 18.2368C53.1933 18.0878 53.3824 17.8788 53.5069 17.6319L53.942 16.5804C54.2649 15.7615 54.0075 15.366 53.0576 15.4683L49.3843 15.9104C49.3473 14.3647 48.9209 12.8529 48.1443 11.5134C48.3926 11.2402 48.6121 10.9424 48.7994 10.6247C48.9332 10.3909 49.0475 10.1466 49.141 9.89423H52.95L51.8504 5.35305C51.5509 3.9572 50.6852 2.77072 49.2533 2.77072H44.705C44.5173 2.15646 44.2713 1.56132 43.9703 0.993336ZM14.8834 10.6712C11.6079 9.02414 11.9962 7.18627 15.2718 7.37704L16.0065 8.74497L17.5179 4.09213C18.1122 2.22634 19.1042 0.555969 21.0461 0.555969H38.1539C40.0958 0.555969 41.2095 2.19377 41.6821 4.06421L42.8332 8.60073L43.4883 7.37704C46.8575 7.18162 47.1616 9.13116 43.5913 10.8108L44.1715 11.6949C46.5112 14.0911 46.296 16.4826 45.931 22.3964V24.3413C45.931 24.6317 45.8153 24.9103 45.6092 25.1161C45.4031 25.3219 45.1234 25.4381 44.8313 25.4394H40.1052C39.8131 25.4381 39.5334 25.3219 39.3273 25.1161C39.1212 24.9103 39.0055 24.6317 39.0055 24.3413V23.4666H19.0059V24.346C19.0059 24.6372 18.8896 24.9165 18.6825 25.1224C18.4754 25.3283 18.1945 25.444 17.9016 25.444H13.2222C12.9293 25.444 12.6485 25.3283 12.4414 25.1224C12.2343 24.9165 12.1179 24.6372 12.1179 24.346V21.8195C12.1179 21.7636 12.1179 21.7078 12.1179 21.6473C11.7623 17.1061 11.2569 13.0116 14.8928 10.6712H14.8834ZM20.8917 16.0592L16.713 15.5335C15.7257 15.4265 15.459 15.8406 15.7772 16.6827L16.2451 17.7761C16.3718 18.0308 16.5659 18.2464 16.8066 18.3996C17.0908 18.5651 17.4132 18.6548 17.7425 18.6602L21.486 18.6881C22.3844 18.6881 22.7728 18.3298 22.492 17.5063C22.3922 17.1398 22.1897 16.8092 21.9079 16.553C21.6262 16.2967 21.277 16.1255 20.9011 16.0592H20.8917ZM37.1151 16.0592L41.2937 15.5335C42.2764 15.4265 42.5431 15.8406 42.2296 16.6827L41.757 17.7715C41.6286 18.0265 41.4329 18.242 41.1908 18.395C40.9068 18.561 40.5843 18.6508 40.2549 18.6555L36.5114 18.6834C35.6083 18.6834 35.2199 18.3252 35.5007 17.5016C35.6013 17.1348 35.8048 16.804 36.0873 16.5478C36.3698 16.2916 36.7198 16.1206 37.0963 16.0546L37.1151 16.0592ZM17.5647 9.7779H41.1393L40.0256 5.06923C39.6887 3.63615 38.7903 2.41711 37.3116 2.41711H21.6872C20.2085 2.41711 19.4364 3.66872 18.9966 5.06923L17.5647 9.7779ZM15.2952 0.993336H7.95795C6.0862 0.993336 5.00995 2.57065 4.55605 4.37595L3.4564 8.75428L2.82937 7.57246C-0.422788 7.38634 -0.712909 9.26609 2.72642 10.8853L2.16958 11.7228C-0.0952331 14.0492 0.115338 16.3756 0.47097 22.0754V23.9365C0.47097 24.0752 0.498445 24.2125 0.551826 24.3407C0.605208 24.4688 0.68345 24.5853 0.782085 24.6833C0.880721 24.7814 0.997819 24.8592 1.12669 24.9123C1.25557 24.9654 1.39369 24.9927 1.53319 24.9927H6.07685C6.21634 24.9927 6.35446 24.9654 6.48334 24.9123C6.61221 24.8592 6.72931 24.7814 6.82795 24.6833C6.92658 24.5853 7.00482 24.4688 7.0582 24.3407C7.11159 24.2125 7.13906 24.0752 7.13906 23.9365V23.099H8.83299V21.6613L8.80491 21.317C8.73004 20.3492 8.65049 19.4046 8.60838 18.4834L5.92711 18.4601C5.61325 18.4641 5.3037 18.3872 5.02867 18.2368C4.78466 18.0841 4.58852 17.8665 4.46247 17.6086L4.02728 16.5571C3.72313 15.7382 3.99453 15.3427 4.9304 15.4451L8.61774 15.9104C8.66287 14.1267 9.17756 12.3861 10.1105 10.862C10.0309 10.7457 9.96539 10.6294 9.89988 10.5177C9.78949 10.3149 9.69257 10.105 9.60976 9.88957H5.07078L6.17043 5.3484C6.46991 3.95254 7.33559 2.76607 8.76748 2.76607H14.5231C14.7337 2.15611 14.9919 1.5634 15.2952 0.993336Z" fill="#BCC6FF"/>
</svg>
